<svg class="logo" viewBox="0 0 500 500" xmlns="http://www.w3.org/2000/svg">
  <style>
    .logo path {
      fill: black;
    }
    @media (prefers-color-scheme: dark) {
      .logo path {
        fill: white;
      }
    }
  </style>
  <path d="M50,0 L50,300 L175,300 C230.228475,300 275,344.771525 275,400 C275,455.228475 230.228475,500 175,500 L0,500 L0,0 L50,0 Z M500,300 L500,500 L450,500 L450.000861,486.621282 C435.291998,495.130096 418.214713,500 400,500 C344.771525,500 300,455.228475 300,400 C300,344.771525 344.771525,300 400,300 C418.214713,300 435.291998,304.869904 450.000861,313.378718 L450,300 L500,300 Z M175,350 L50,350 L50,450 L175,450 C202.614237,450 225,427.614237 225,400 C225,372.661905 203.059714,350.448238 175.826841,350.006699 L175,350 Z M400,350 C372.385763,350 350,372.385763 350,400 C350,427.614237 372.385763,450 400,450 C427.614237,450 450,427.614237 450,400 C450,372.385763 427.614237,350 400,350 Z M350,0 L350,125 L425,125 C466.421356,125 500,158.578644 500,200 C500,241.421356 466.421356,275 425,275 L300,275 L300,0 L350,0 Z M200,0 L200,125 L275,125 L275,175 L200,175 L200,275 L150,275 L150,175 L75,175 L75,125 L150,125 L150,0 L200,0 Z M425,175 L350,175 L350,225 L425,225 C438.807119,225 450,213.807119 450,200 C450,186.330952 439.029857,175.224119 425.413421,175.003349 L425,175 Z"></path>
</svg>
