<svg viewBox="0 0 32 31" xmlns="http://www.w3.org/2000/svg">
  <path d="M10.1712188,27.7150779 C11.2696498,26.6144384 11.4239065,26.3518924 11.9793208,25.6138007 C13.2536479,23.9164304 13.9268774,21.9473846 14.4462258,19.9134252 C14.6313639,19.1945673 14.650599,19.1993757 15.3622987,19.5071142 C17.4805671,20.4183088 19.5315125,19.956701 21.5632228,19.1993757 C21.7195082,19.1416747 21.9046463,19.0599317 21.9888,18.9325087 C22.3590762,18.3747326 22.924108,18.3122232 23.5155882,18.1679708 C24.7490407,17.8650406 25.9608537,17.3264982 26.2133147,15.9344622 C26.3984528,14.9078657 27.02119,14.5304051 27.8170434,14.145732 C28.6585802,13.7394209 29.500117,13.311472 30.2647133,12.7801422 C31.240896,12.10456 31.5462537,11.0755593 31.2481092,9.95279446 C31.0894194,9.35174264 30.7888705,8.74347819 30.3993592,8.26263673 C29.9882084,7.7577532 30.0194655,7.52935351 30.5508358,7.19036028 C32.551289,5.91372622 32.3925992,3.48307265 30.6157544,2.01169779 C29.2620823,0.891337192 27.6823975,0.463388295 25.9632581,0.631682805 C24.8211724,0.74227634 23.6838955,0.949038167 22.5586406,1.18224627 C21.9238814,1.31447767 21.447812,1.27841457 20.9428899,0.780743657 C20.5750181,0.417708357 20.0075819,0.107565617 19.5026598,0.0618856782 C18.5409035,-0.0246657841 17.5310593,-0.0438994424 16.5957512,0.160458177 C15.0449191,0.501855612 13.6623944,1.28322298 12.4289419,2.30020266 C11.7917783,2.82431985 11.1017181,3.16812149 10.2553725,3.29073606 C7.71874016,3.65377137 6.66561696,6.01951134 5.13882876,7.76496583 C4.03761774,9.02477044 2.55170418,10.0802174 2.08525235,11.6886321 C1.52983806,13.6023811 2.18383238,15.9416748 2.02514258,17.9467837 C1.84962205,20.1418249 1.9409889,22.5075649 0.85420423,24.4982485 C0.538985586,25.1120923 -0.259839204,26.9590949 0.0844986036,27.9328124 C0.259995664,28.4290826 2.41375226,30.6375456 4.59273148,30.4872827 C6.05455306,30.3864751 9.0727879,28.8157174 10.1712188,27.7150779 Z M8.44246181,17.6390452 C9.07481661,17.1870542 9.4979894,17.2976477 9.67350994,17.6678956 C9.7360241,17.8025312 9.21427128,21.4328843 8.40158717,20.4038835 C8.02890658,19.9350631 8.36311691,17.6967461 8.44246181,17.6390452 Z M2.23913337,26.7557992 C2.28241241,26.6860772 2.28962558,26.5899089 2.33290461,26.5177827 C3.48460784,24.6569262 3.89816307,22.5941164 4.03761774,20.4423509 C4.11455825,19.2306304 4.70122962,18.1799918 5.37205467,17.1990752 C5.53074447,16.9682713 5.93949092,16.7542969 6.2063783,16.7831474 C6.65119061,16.8336357 6.72813112,17.2687972 6.71610917,17.6823209 C6.69687404,18.4468588 6.58386767,19.225822 6.69927843,19.968722 C6.80988041,20.6611337 7.06234145,21.3799917 7.44223521,21.9642141 C8.08420757,22.9523433 9.42826207,22.8826212 9.92837537,21.82477 C10.4525326,20.7188347 10.805978,19.5287521 11.1978937,18.3651158 C11.3229221,17.997272 11.3589879,17.6246199 11.8158222,17.4875801 C12.4890516,17.2856267 12.6621678,17.463538 12.6405283,18.1631623 C12.5876317,19.8196612 12.1067535,21.3439286 11.3205177,22.7792403 C10.9742854,23.4115469 10.5559214,24.0005776 10.1688145,24.6112463 C8.9978761,26.0032823 7.6033294,27.1092177 6.03085777,27.9795407 C4.78778769,28.667144 3.53750444,28.4916368 2.47235928,27.6092928 C2.16700164,27.3544468 2.00350307,27.1308555 2.23913337,26.7557992 Z"></path>
</svg>
