<svg viewBox="0 0 92 98" xmlns="http://www.w3.org/2000/svg">
  <path d="M29.51,86.019 C28.856,85.299 28.267,84.858 27.619,84.308 C27.38,84.106 27.084,83.962 26.798,83.827 C26.582,83.725 26.327,83.726 26.154,83.913 C25.993,84.087 25.95,84.325 26.031,84.561 C26.076,84.694 26.123,84.837 26.207,84.946 C27.126,86.184 28.276,86.975 28.451,87.094 C28.756,87.301 29.097,87.378 29.462,87.329 C29.817,87.281 29.987,87.1 29.901,86.75 C29.836,86.488 29.689,86.216 29.51,86.019 Z"></path>
  <path d="M91.199,65.565 C91.161,65.42 91.12,65.275 91.077,65.132 C90.479,63.119 89.595,61.265 88.199,59.68 C87.542,58.934 86.757,58.386 85.767,58.141 C85.09,57.973 84.563,58.206 84.159,58.692 C83.685,59.263 83.235,59.866 82.854,60.502 C82.128,61.715 81.475,62.972 80.76,64.191 C77.912,69.044 73.944,72.78 68.762,75.107 C66.675,76.044 64.339,77.062 62.007,76.944 C60.628,76.874 59.35,76.254 58.48,75.184 C57.912,74.486 58.982,73.564 59.323,72.978 C59.876,72.028 60.353,71.033 60.754,70.01 C61.559,67.958 62.063,65.791 62.291,63.6 C62.82,58.507 62.141,52.839 59.653,48.304 C57.26,43.942 53.423,40.42 48.861,38.443 C46.438,37.393 43.844,36.758 41.219,36.493 C39.966,36.367 38.703,36.353 37.448,36.317 C37.254,36.311 35.182,36.169 35.15,36.238 C35.169,36.197 35.215,36.179 35.258,36.165 C36.42,35.764 37.588,35.375 38.74,34.946 C44.493,32.803 50.321,29.53 52.987,23.707 C53.876,21.765 54.355,19.725 54.444,17.598 C54.595,14.018 53.466,10.237 51.043,7.541 C50.077,6.466 48.916,5.598 47.856,4.622 C46.733,3.589 45.943,2.407 45.103,1.143 C44.96,0.928 44.787,0.743 44.521,0.72 C44.15,0.688 43.98,1.154 43.589,1.126 C43.531,1.122 43.461,1.278 43.398,1.362 C43.388,1.376 43.385,1.395 43.378,1.411 C43.256,1.678 43.334,2.051 42.945,2.181 C42.893,2.198 42.867,2.374 42.875,2.473 C42.889,2.648 42.915,2.829 42.978,2.991 C43.526,4.412 43.945,6.02 45.248,6.947 C45.653,7.235 46.119,7.458 46.428,7.847 C46.655,8.133 46.778,8.488 46.876,8.84 C47.619,11.51 47.066,14.56 46.185,17.134 C45.282,19.775 44.013,22.21 42.199,24.346 C41.051,25.698 39.873,27.02 38.505,28.159 C37.267,29.191 36.036,30.23 34.569,30.944 C33.767,31.334 32.934,31.623 32.077,31.852 C32.031,31.864 31.976,31.845 31.925,31.841 C31.947,31.785 31.955,31.718 31.992,31.675 C32.24,31.382 32.513,31.108 32.744,30.801 C33.274,30.095 33.554,29.276 33.77,28.43 C33.847,28.131 33.855,28.133 34.151,28.261 C35.032,28.64 35.885,28.448 36.73,28.133 C36.795,28.109 36.872,28.075 36.907,28.022 C37.061,27.79 37.296,27.764 37.542,27.704 C38.055,27.578 38.559,27.354 38.664,26.775 C38.741,26.348 39,26.191 39.331,26.031 C39.681,25.862 40.031,25.684 40.349,25.463 C40.755,25.182 40.882,24.754 40.758,24.287 C40.692,24.037 40.567,23.784 40.405,23.584 C40.234,23.374 40.247,23.279 40.468,23.138 C41.3,22.607 41.234,21.596 40.495,20.984 C39.932,20.518 39.275,20.34 38.56,20.41 C38.085,20.456 37.612,20.542 37.144,20.639 C36.88,20.694 36.682,20.679 36.472,20.472 C36.319,20.321 36.083,20.192 35.873,20.173 C35.473,20.137 35.053,20.129 34.664,20.214 C34.019,20.356 33.444,20.681 32.931,21.104 C32.666,21.322 32.379,21.465 32.027,21.516 C30.972,21.667 30.534,22.651 29.899,23.377 C29.441,23.901 28.823,24.34 28.629,25.009 C28.398,25.805 28.67,26.778 28.604,27.612 C28.531,28.525 28.569,29.509 28.117,30.337 C28.1,30.369 28.078,30.403 28.044,30.412 C27.983,30.428 27.935,30.36 27.908,30.303 C27.194,28.763 26.136,27.445 24.504,26.828 C24.107,26.678 23.701,26.55 23.296,26.422 C22.199,26.077 21.099,25.737 20.001,25.395 C19.308,25.18 18.599,25.006 17.925,24.741 C16.274,24.092 14.721,23.25 13.222,22.297 C11.599,21.264 10.097,20.096 8.752,18.717 C7.691,17.629 6.976,16.34 6.433,14.944 C5.766,13.228 5.79,11.437 5.923,9.643 C5.977,8.92 6.085,8.2 6.178,7.48 C6.287,6.637 6.173,5.816 5.928,5.013 C5.783,4.535 5.555,4.093 5.19,3.738 C5.065,3.616 4.916,3.426 4.742,3.543 C4.583,3.649 4.5,3.801 4.434,4 C4.414,4.058 4.385,4.172 4.376,4.242 C4.307,4.749 4.273,5.264 4.155,5.759 C3.977,6.503 3.872,6.537 3.243,6.139 C2.581,5.719 1.868,5.577 1.106,5.721 C0.386,5.857 0.187,6.143 0.429,6.783 C0.49,6.943 0.568,7.145 0.522,7.29 C0.162,8.422 1.817,8.893 2.212,9.736 C2.412,10.164 2.397,10.657 2.373,11.129 C2.269,13.151 1.826,15.198 1.811,17.21 C1.798,18.987 2.03,20.706 2.649,22.375 C3.338,24.233 4.389,25.868 5.791,27.248 C7.072,28.509 8.544,29.521 10.218,30.235 C11.474,30.771 12.729,31.317 14.069,31.573 C15.667,31.878 17.286,32.075 18.893,32.329 C19.169,32.373 19.452,32.439 19.706,32.553 C20.065,32.713 20.138,32.954 20.036,33.342 C19.92,33.785 19.638,34.123 19.372,34.479 C18.886,35.131 18.393,35.783 17.967,36.473 C17.569,37.118 17.243,37.81 16.902,38.49 C16.306,39.68 15.813,40.913 15.49,42.205 C15.163,43.513 14.94,44.836 14.862,46.188 C14.759,47.969 14.802,49.721 15.273,51.462 C15.6,52.669 16.006,53.829 16.624,54.913 C17.572,56.577 18.913,57.829 20.618,58.692 C22.482,59.636 24.485,59.902 26.545,59.92 C28.05,59.933 29.505,59.597 30.973,59.352 C32.137,59.158 33.235,59.311 34.28,59.827 C35,60.182 35.184,60.723 34.866,61.449 C34.761,61.687 34.598,61.907 34.431,62.11 C33.818,62.854 32.829,63.217 32.043,63.744 C31.163,64.334 30.319,64.978 29.516,65.67 C27.785,67.164 26.412,68.897 24.991,70.67 C23.655,72.336 21.976,74.383 22.283,76.674 C22.436,77.817 23.171,78.793 23.963,79.631 C26.251,82.053 29.224,83.912 32.202,85.371 C34.127,86.314 36.109,87.122 38.129,87.841 C42.575,89.424 47.202,90.458 51.863,91.167 C56.216,91.829 60.643,92.43 65.044,92.065 C72.166,91.475 79.454,89.128 84.607,83.98 C89.341,79.252 93.006,72.402 91.199,65.565 Z M71.734,75.077 C71.938,74.93 71.984,74.951 72.067,75.161 C72.163,75.404 71.827,76.456 70.713,77.669 C69.85,78.608 68.899,79.295 67.887,80.008 C66.409,81.049 64.789,81.763 63.01,82.152 C60.919,82.609 58.802,82.814 56.675,82.884 C55.279,82.93 53.876,82.811 52.478,82.736 C51.187,82.666 49.897,82.567 48.609,82.457 C48.009,82.406 47.883,82.266 47.77,81.687 C47.712,81.392 47.655,81.094 47.634,80.794 C47.6,80.314 47.652,80.227 48.118,80.137 C48.99,79.967 49.869,79.894 50.762,79.968 C52.21,80.087 53.66,80.169 55.11,80.265 C55.481,80.29 55.852,80.317 56.224,80.33 C58.03,80.391 59.839,80.522 61.637,80.219 C63.006,79.988 64.335,79.625 65.6,79.041 C66.969,78.408 68.257,77.641 69.461,76.73 C70.208,76.164 70.974,75.624 71.734,75.077 Z M49.26,73.746 C49.372,73.051 49.795,72.76 50.393,72.59 C52.35,72.035 54.103,72.444 55.677,73.704 C55.746,73.759 55.814,73.817 55.883,73.873 C55.889,73.867 56.809,74.696 57.256,75.125 C57.369,75.234 57.466,75.366 57.547,75.502 C58.394,76.921 59.723,77.578 61.285,77.843 C62.725,78.086 64.106,77.799 65.461,77.324 C66.531,76.949 67.617,76.616 68.622,76.076 C68.653,76.059 68.687,76.045 68.722,76.04 C68.76,76.035 68.8,76.043 68.839,76.046 C68.823,76.077 68.815,76.119 68.79,76.138 C68.564,76.307 68.336,76.475 68.105,76.637 C66.45,77.796 64.659,78.663 62.694,79.155 C61.446,79.467 60.184,79.58 58.895,79.456 C57.326,79.305 55.754,79.146 54.18,79.086 C52.427,79.02 50.669,79.015 48.922,79.251 C48.746,79.275 48.57,79.304 48.393,79.307 C48.005,79.313 47.847,79.081 47.966,78.718 C48.197,78.014 48.455,77.316 48.64,76.599 C48.882,75.656 49.105,74.705 49.26,73.746 Z M45.257,4.284 C45.314,4.506 45.408,4.719 45.484,4.936 C45.522,5.045 45.545,5.126 45.368,5.137 C44.978,5.161 44.981,5.172 44.973,5.584 C44.972,5.642 44.926,5.699 44.901,5.756 C44.859,5.732 44.795,5.719 44.78,5.684 C44.373,4.764 43.965,3.844 43.573,2.916 C43.484,2.706 43.529,2.665 43.795,2.738 C44.001,2.795 44.057,2.705 44.07,2.541 C44.079,2.436 44.059,2.329 44.056,2.222 C44.047,1.892 44.051,1.902 44.419,1.779 C44.577,1.726 44.663,1.727 44.765,1.883 C45.123,2.43 45.501,2.964 45.869,3.504 C45.917,3.575 45.948,3.658 45.991,3.742 C45.944,3.737 45.909,3.732 45.874,3.73 C45.803,3.727 45.732,3.719 45.662,3.724 C45.276,3.755 45.159,3.906 45.257,4.284 Z M46.11,6.788 C46.038,6.739 45.953,6.7 45.897,6.636 C45.856,6.589 45.831,6.506 45.84,6.445 C45.846,6.41 45.931,6.376 45.986,6.363 C46.054,6.347 46.13,6.365 46.196,6.347 C46.459,6.277 46.575,6.098 46.488,5.831 C46.372,5.479 46.217,5.141 46.086,4.794 C46.064,4.735 46.02,4.576 46.078,4.597 C46.136,4.618 46.214,4.621 46.248,4.662 C46.796,5.305 47.338,5.954 47.884,6.598 C47.963,6.691 48.05,6.786 48.151,6.85 C48.214,6.89 48.412,6.921 48.304,6.685 C48.181,6.416 48.008,6.172 47.862,5.915 C47.794,5.796 47.606,5.606 47.668,5.553 C47.73,5.501 47.892,5.679 47.992,5.758 C48.242,5.955 48.749,6.344 48.749,6.344 C49.237,6.806 49.725,7.266 50.21,7.731 C50.254,7.774 50.326,7.866 50.303,7.9 C50.28,7.934 50.176,7.914 50.118,7.9 C49.366,7.709 48.615,7.514 47.863,7.32 C47.812,7.307 46.591,7.118 46.11,6.788 Z M31.273,27.484 C31.536,27.296 31.712,27.342 31.785,27.496 C31.811,27.552 31.594,29.062 31.256,28.634 C31.101,28.439 31.24,27.508 31.273,27.484 Z M28.693,31.276 C28.711,31.247 28.714,31.207 28.732,31.177 C29.211,30.403 29.383,29.545 29.441,28.65 C29.473,28.146 29.717,27.709 29.996,27.301 C30.062,27.205 30.232,27.116 30.343,27.128 C30.528,27.149 30.56,27.33 30.555,27.502 C30.547,27.82 30.5,28.144 30.548,28.453 C30.594,28.741 30.699,29.04 30.857,29.283 C31.124,29.694 31.683,29.665 31.891,29.225 C32.109,28.765 32.256,28.27 32.419,27.786 C32.471,27.633 32.486,27.478 32.676,27.421 C32.956,27.337 33.028,27.411 33.019,27.702 C32.997,28.391 32.797,29.025 32.47,29.622 C32.326,29.885 32.152,30.13 31.991,30.384 C31.504,30.963 30.924,31.423 30.27,31.785 C29.753,32.071 29.233,31.998 28.79,31.631 C28.663,31.525 28.595,31.432 28.693,31.276 Z M2.463,8.825 C2.135,8.615 1.805,8.41 1.484,8.19 C1.37,8.112 1.276,8.003 1.182,7.899 C1.043,7.744 1.252,7.646 1.252,7.525 C1.252,7.337 1.215,7.142 1.159,6.961 C1.02,6.502 1.049,6.44 1.533,6.422 C2.159,6.399 2.705,6.643 3.22,6.971 C3.419,7.098 3.558,7.324 3.871,7.214 C4.213,7.094 4.52,6.996 4.675,6.606 C4.875,6.104 4.972,5.595 4.979,5.06 C4.98,4.969 4.974,4.809 5.051,4.789 C5.129,4.769 5.207,4.929 5.23,5.014 C5.33,5.385 5.457,5.757 5.486,6.136 C5.563,7.166 5.462,8.186 5.191,9.187 C5.027,9.791 4.986,10.406 5.014,11.03 C5.019,11.139 4.992,11.286 4.921,11.356 C4.381,11.89 3.826,12.41 3.274,12.932 C3.227,12.977 3.164,13.005 3.109,13.041 C3.084,12.977 3.048,12.916 3.037,12.85 C2.907,12.037 2.877,11.242 3.214,10.452 C3.439,9.923 3.408,9.342 3.332,8.774 C3.308,8.598 3.276,8.424 3.257,8.248 C3.252,8.201 3.23,8.149 3.292,8.104 C3.355,8.058 3.429,8.13 3.471,8.171 C3.74,8.436 3.833,8.769 3.833,9.138 C3.833,9.423 3.866,9.691 4.052,9.939 C4.192,10.125 4.339,10.136 4.509,10.06 C4.694,9.977 4.67,9.828 4.613,9.656 C4.543,9.44 4.491,9.213 4.474,8.987 C4.431,8.42 4.169,7.98 3.664,7.56 C3.563,7.51 3.384,7.382 3.185,7.331 C2.767,7.222 2.539,7.427 2.57,7.862 C2.59,8.145 2.642,8.425 2.668,8.707 C2.673,8.766 2.659,8.877 2.604,8.892 C2.549,8.908 2.506,8.853 2.463,8.825 Z M25.893,38.943 C24.721,39.605 23.601,40.351 22.578,41.227 C21.988,41.733 21.439,42.288 20.879,42.828 C20.611,43.086 20.34,43.345 20.105,43.632 C18.912,45.088 17.833,46.622 17.128,48.38 C16.8,49.198 16.572,50.056 16.29,50.893 C16.248,51.018 16.197,51.243 16.091,51.244 C15.986,51.246 15.93,51.014 15.92,50.893 C15.836,49.886 15.699,48.877 15.71,47.87 C15.734,45.861 15.983,43.876 16.606,41.952 C17.098,40.432 17.658,38.935 18.489,37.571 C19.068,36.621 19.785,35.756 20.427,34.843 C20.608,34.586 20.788,34.311 20.889,34.017 C21.25,32.963 20.793,32.031 19.754,31.611 C19.035,31.32 18.267,31.319 17.516,31.212 C15.819,30.97 14.109,30.839 12.47,30.238 C10.121,29.375 8.066,28.076 6.22,26.405 C4.533,24.877 3.486,22.986 2.969,20.794 C2.712,19.704 2.609,18.589 2.616,17.466 C2.617,17.229 2.699,17.066 2.869,16.872 C3.275,16.408 3.611,15.882 3.958,15.369 C4.375,14.753 4.772,14.124 5.181,13.503 C5.205,13.467 5.249,13.405 5.295,13.422 C5.342,13.439 5.342,13.518 5.357,13.568 C5.496,14.025 5.622,14.487 5.774,14.94 C6.063,15.802 6.475,16.598 7.036,17.32 C7.492,17.907 7.889,18.54 8.361,19.112 C9.139,20.055 10.017,20.9 10.97,21.672 C11.951,22.467 12.95,23.237 14.093,23.774 C15.386,24.383 16.591,25.185 17.997,25.552 C18.355,25.645 18.695,25.807 19.044,25.934 C20.89,26.606 22.736,27.276 24.582,27.947 C25.904,28.427 26.708,29.428 27.28,30.653 C27.343,30.788 27.354,30.962 27.34,31.114 C27.299,31.541 27.417,31.927 27.624,32.285 C28.133,33.167 28.927,33.698 29.9,33.884 C30.803,34.056 31.655,33.763 32.436,33.301 C32.564,33.225 32.715,33.067 32.724,32.937 C32.751,32.558 33.016,32.497 33.289,32.409 C34.271,32.094 35.205,31.671 36.096,31.149 C37.706,30.207 39.243,29.153 40.59,27.865 C41.754,26.752 42.865,25.576 43.719,24.188 C44.275,23.283 44.884,22.41 45.426,21.498 C46.126,20.32 46.59,19.033 47.03,17.743 C47.651,15.923 48.03,14.047 48.132,12.126 C48.182,11.189 48.12,10.247 47.924,9.322 C47.858,9.008 47.874,8.989 48.156,9.081 C49.098,9.388 50.036,9.708 50.98,10.01 C51.194,10.079 51.426,10.134 51.647,10.125 C51.844,10.117 51.951,10.185 52.032,10.334 C52.643,11.46 53.185,12.612 53.359,13.9 C53.569,15.452 53.599,17.007 53.461,18.568 C53.338,19.962 52.926,21.272 52.357,22.54 C52.06,23.201 51.799,23.885 51.437,24.509 C50.968,25.318 50.415,26.079 49.898,26.861 C48.865,28.024 47.708,29.033 46.485,29.981 C45.582,30.681 44.591,31.214 43.583,31.733 C41.689,32.709 39.704,33.46 37.703,34.174 C36.001,34.782 34.295,35.381 32.599,36.006 C32.035,36.214 31.481,36.462 30.948,36.742 C30.458,37 29.951,37.186 29.427,37.358 C28.195,37.761 27.02,38.305 25.893,38.943 Z M27.922,74.805 C28.647,73.793 29.509,72.965 30.649,72.417 C31.283,72.112 31.855,71.679 32.463,71.317 C32.797,71.118 33.136,70.918 33.493,70.769 C35.389,69.979 37.101,68.881 38.656,67.558 C39.692,66.676 40.685,65.723 41.437,64.575 C42.007,63.705 42.468,62.767 42.885,61.809 C43.22,61.039 43.476,60.254 43.522,59.413 C43.644,57.143 42.775,55.189 40.912,53.832 C39.504,52.807 37.793,52.273 36.077,51.978 C33.133,51.472 30.609,52.041 27.717,52.292 C25.057,52.523 28.84,49.666 29.704,49.264 C32.983,47.738 37.538,47.745 40.648,49.702 C41.262,50.089 41.843,50.528 42.439,50.944 C45.287,53.308 47.023,57.17 47.797,60.719 C48.741,65.047 49.139,69.688 48.197,74.055 C47.853,75.648 47.445,77.224 46.944,78.779 C46.68,79.598 46.451,80.44 46.517,81.333 C46.557,81.871 46.504,81.853 46.007,81.981 C44.756,82.304 43.511,82.127 42.269,81.955 C40.953,81.773 39.633,81.592 38.332,81.326 C36.998,81.054 35.684,80.68 34.359,80.348 C33.39,80.102 34.055,79.837 34.154,79.25 C34.199,78.982 33.924,78.748 33.653,78.73 C33.085,78.693 32.45,79.093 31.847,79.102 C31.034,79.115 30.268,78.87 29.587,78.429 C28.854,77.954 28.377,77.303 27.933,76.601 C27.813,76.411 27.746,76.179 27.694,75.957 C27.597,75.545 27.661,75.17 27.922,74.805 Z M24.844,77.109 C24.38,76.697 23.92,76.279 23.437,75.891 C23.206,75.705 23.137,75.521 23.243,75.25 C23.385,74.889 23.487,74.509 23.659,74.163 C23.892,73.691 24.044,73.727 24.354,73.933 C24.559,74.07 24.773,74.193 24.949,74.302 C25.225,74.589 25.505,74.819 25.709,75.103 C26.251,75.858 26.896,76.531 27.278,77.413 C27.579,78.107 28.084,78.7 28.804,79.054 C28.957,79.129 29.08,79.263 29.218,79.37 C29.047,79.355 28.871,79.364 28.707,79.322 C27.611,79.048 26.644,78.489 25.703,77.893 C25.381,77.687 25.134,77.367 24.844,77.109 Z M26.153,79.418 C28.159,80.364 30.252,80.68 32.419,79.955 C32.548,79.912 32.768,79.795 32.822,79.869 C32.876,79.943 32.619,80.106 32.491,80.178 C31.642,80.653 30.724,80.939 29.755,80.911 C29.182,80.895 28.6,80.748 28.048,80.576 C27.327,80.352 26.629,80.05 25.959,79.561 C25.914,79.498 25.37,79.049 26.153,79.418 Z M80.432,84.77 C80.184,84.996 79.967,85.258 79.711,85.474 C78.105,86.829 76.355,87.969 74.414,88.772 C72.459,89.581 70.424,90.133 68.323,90.427 C66.918,90.624 65.516,90.847 64.108,91.018 C63.477,91.095 62.833,91.11 62.197,91.092 C60.425,91.043 58.649,91.019 56.884,90.878 C55.103,90.736 53.322,90.527 51.559,90.234 C49.778,89.938 48.013,89.532 46.253,89.124 C42.898,88.345 39.661,87.206 36.489,85.871 C34.336,84.965 32.166,84.095 30.099,82.999 C29.489,82.675 28.868,82.369 28.284,82 C27.588,81.56 28.29,81.699 28.38,81.698 C28.645,81.695 28.91,81.723 29.176,81.738 C30.233,81.798 31.214,81.516 32.135,81.031 C32.439,80.871 32.689,80.835 33.029,80.92 C34.73,81.345 36.435,81.761 38.152,82.118 C39.121,82.319 40.115,82.408 41.099,82.534 C43.12,82.792 45.143,83.038 47.164,83.299 C47.313,83.318 47.495,83.373 47.589,83.477 C48.614,84.615 49.972,85.112 51.404,85.425 C52.584,85.683 53.787,85.715 55.001,85.68 C56.696,85.631 58.366,85.418 59.997,84.992 C61.954,84.482 63.982,83.799 65.735,82.74 C66.853,82.064 67.896,81.47 68.885,80.596 C69.666,79.907 70.429,79.196 71.169,78.463 C71.556,78.079 71.898,77.644 72.218,77.201 C73.187,75.859 73.384,74.859 73.122,74.266 C73.023,74.041 73.061,73.923 73.246,73.776 C74.064,73.128 74.889,72.487 75.674,71.801 C76.607,70.985 77.547,70.168 78.402,69.273 C79.172,68.467 79.871,67.584 80.529,66.683 C81.165,65.813 81.728,64.887 82.285,63.963 C82.613,63.42 82.883,62.84 83.153,62.264 C83.537,61.446 83.939,60.641 84.466,59.904 C84.659,59.635 84.862,59.449 85.107,59.701 C86.114,60.737 86.677,62.444 87.057,63.604 C87.28,64.286 87.39,64.978 87.522,65.674 C87.81,67.199 87.939,68.736 87.85,70.281 C87.748,72.058 87.371,73.787 86.732,75.453 C86.422,76.261 85.441,78.583 84.356,80.229 C84.037,80.716 82.367,83.001 80.432,84.77 Z M90.552,69.773 C90.51,70.727 90.432,71.684 90.17,72.61 C90.002,73.204 89.818,73.794 89.605,74.373 C89.373,75.002 89.113,75.621 88.837,76.232 C88.612,76.73 88.369,77.225 88.09,77.694 C87.494,78.696 86.882,79.69 86.25,80.669 C86.042,80.991 85.627,81.444 85.378,81.737 C84.003,83.354 83.041,83.956 82.981,83.985 C83.002,83.926 83.729,82.82 83.968,82.511 C84.672,81.596 85.189,80.742 85.743,79.811 C86.4,78.708 86.914,77.549 87.416,76.383 C88.278,74.381 88.742,72.272 88.814,70.094 C88.897,67.593 88.596,65.14 87.738,62.772 C87.324,61.631 86.704,60.601 86.028,59.601 C85.949,59.484 85.859,59.373 85.783,59.254 C85.65,59.044 85.858,59.102 85.89,59.117 C86.209,59.268 86.544,59.397 86.834,59.593 C88.005,60.384 88.725,61.541 89.303,62.787 C89.963,64.211 90.384,65.717 90.534,67.279 C90.613,68.104 90.589,68.943 90.552,69.773 Z"></path>
  <path d="M72.885,93.236 C72.104,93.201 71.331,93.275 70.555,93.369 C69.199,93.533 67.837,93.649 66.478,93.794 C65.963,93.849 65.471,93.984 65.028,94.271 C64.476,94.628 64.343,95.133 64.696,95.673 C64.83,95.878 65.011,96.053 65.175,96.248 C65.661,96.536 66.128,96.856 66.69,96.995 C67.38,97.166 68.072,97.286 68.789,97.281 C70.194,97.271 71.59,97.255 72.92,96.699 C73.384,96.505 73.809,96.275 74.17,95.921 C74.7,95.401 74.772,94.65 74.357,94.05 C73.997,93.528 73.509,93.264 72.885,93.236 Z"></path>
</svg>
