<svg viewBox="0 0 83 67" xmlns="http://www.w3.org/2000/svg">
  <path d="M65.1830394,57.8100074 C65.3670394,56.7400074 65.3450394,55.7340074 65.1200394,54.7880074 C66.5230394,54.7490074 67.9300394,54.6840074 69.3360394,54.5880074 L69.3510394,54.5880074 C71.4320394,54.4120074 73.1570394,53.5550074 74.5260394,52.0160074 C75.9410394,50.4310074 76.5760394,48.5880074 76.4320394,46.4840074 C76.3210394,44.8240074 75.7470394,43.3790074 74.7120394,42.1450074 C75.4980394,42.0370074 76.0300394,41.9270074 76.3080394,41.8200074 L76.3390394,41.8050074 C78.5330394,40.9870074 80.2120394,39.5720074 81.3740394,37.5600074 L81.3900394,37.5450074 C82.6680394,35.3670074 82.7550394,33.0080074 81.6540394,30.4630074 L81.6540394,30.4800074 C80.6270394,27.8920074 78.4010394,26.3220074 74.9750394,25.7700074 L75.0060394,25.7700074 C74.5060394,25.6740074 73.9530394,25.6030074 73.3490394,25.5520074 C73.4950394,25.3230074 73.6290394,25.0790074 73.7510394,24.8230074 L73.7670394,24.7920074 C74.6170394,22.9180074 74.7140394,21.0020074 74.0620394,19.0440074 C74.0560394,19.0320074 74.0510394,19.0160074 74.0450394,18.9980074 C73.3360394,17.0460074 72.0860394,15.6040074 70.2960394,14.6750074 L70.3120394,14.6750074 C68.7510394,13.7880074 66.5670394,13.4730074 63.7580394,13.7300074 L63.7580394,13.7140074 C61.7180394,13.8800074 53.2640394,15.7330074 38.3940394,19.2760074 C38.4360394,19.2040074 38.4770394,19.1310074 38.5180394,19.0590074 L38.5180394,19.0750074 C39.5900394,17.2580074 40.4110394,15.2600074 40.9810394,13.0780074 L40.9660394,13.0940074 C41.6450394,10.6590074 41.4060394,8.06100739 40.2530394,5.30200739 C38.9130394,2.02700739 36.4040394,0.621007388 32.7220394,1.08700739 L32.7070394,1.08700739 C29.1610394,1.43600739 26.8690394,3.78600739 25.8280394,8.13700739 C25.1730394,10.9110074 24.5220394,12.7490074 23.8750394,13.6530074 L23.8610394,13.6690074 C23.1440394,14.4830074 21.9710394,15.3510074 20.3430394,16.2720074 C20.3330394,16.2760074 20.3220394,16.2810074 20.3120394,16.2870074 C17.9830394,17.5570074 16.1700394,19.4890074 14.8740394,22.0820074 L14.8740394,22.0660074 C14.4810394,22.8310074 14.1350394,23.6150074 13.8350394,24.4210074 C12.5440394,23.5840074 11.4180394,23.2060074 10.4580394,23.2910074 C7.25403938,23.1640074 4.69103938,25.0600074 2.77303938,28.9770074 L2.78803938,28.9610074 C1.43703938,31.6290074 0.559039375,34.5880074 0.154039375,37.8400074 L0.154039375,37.8560074 C-0.239960625,41.1390074 0.122039375,44.4340074 1.23803938,47.7410074 L1.25303938,47.7570074 C2.50303938,51.6550074 5.64303938,53.6860074 10.6730394,53.8460074 C10.9400394,53.8550074 11.1880394,53.8190074 11.4170394,53.7390074 C15.6820394,61.2430074 24.2250394,63.3860074 37.0430394,60.1690074 C43.5010394,62.2710074 50.1590394,63.6500074 57.0160394,64.3050074 L57.0310394,64.3050074 C58.9720394,64.4910074 60.7390394,63.9490074 62.3300394,62.6780074 C63.9250394,61.3950074 64.8750394,59.7750074 65.1830394,57.8100074 Z M37.8200394,55.9040074 C37.4140394,55.7710074 37.0060394,55.7620074 36.5960394,55.8730074 C23.9990394,59.1710074 16.3200394,56.4440074 13.5570394,47.6920074 C13.3900394,47.1290074 13.0510394,46.7060074 12.5340394,46.4220074 C12.0150394,46.1400074 11.4720394,46.0830074 10.9080394,46.2500074 C10.3440394,46.4160074 9.92003938,46.7560074 9.63703938,47.2730074 C9.35403938,47.7920074 9.29803938,48.3340074 9.46603938,48.8990074 C9.51903938,49.0910074 9.57603938,49.2820074 9.63703938,49.4730074 C7.43103938,49.1520074 5.98003938,48.1150074 5.28303938,46.3590074 L5.29903938,46.3750074 C4.39203938,43.6950074 4.09203938,41.0240074 4.40003938,38.3630074 C4.73803938,35.6250074 5.47203938,33.1300074 6.60003938,30.8820074 L6.61603938,30.8650074 C7.63203938,28.7890074 8.91203938,27.6880074 10.4590394,27.5640074 C11.0090394,27.6700074 11.7420394,28.1040074 12.6590394,28.8670074 C12.6040394,29.1810074 12.5590394,29.4960074 12.5190394,29.8110074 C12.4460394,30.3960074 12.5910394,30.9210074 12.9530394,31.3910074 C13.3180394,31.8560074 13.7930394,32.1250074 14.3780394,32.1980074 C14.9630394,32.2710074 15.4910394,32.1270074 15.9590394,31.7630074 C16.4230394,31.3990074 16.6920394,30.9240074 16.7650394,30.3380074 C17.0430394,28.0720074 17.6830394,25.9650074 18.6860394,24.0160074 L18.6860394,24.0000074 C19.5730394,22.2250074 20.8080394,20.8970074 22.3890394,20.0190074 L22.4200394,20.0030074 C24.6480394,18.7460074 26.2280394,17.5360074 27.1610394,16.3780074 L27.1770394,16.3620074 C28.1770394,15.2340074 29.1120394,12.8210074 29.9820394,9.12600739 C30.5100394,6.91200739 31.6000394,5.64600739 33.2510394,5.33000739 L33.2670394,5.33000739 C34.7420394,5.14000739 35.7590394,5.67700739 36.3190394,6.94200739 C37.0650394,8.72600739 37.2410394,10.4050074 36.8450394,11.9780074 L36.8290394,11.9930074 C36.3670394,13.7790074 35.7010394,15.4160074 34.8300394,16.9050074 L34.8300394,16.9210074 C33.7600394,18.7540074 33.1040394,20.3760074 32.8630394,21.7860074 C32.8500394,21.8280074 32.8400394,21.8690074 32.8320394,21.9100074 C32.8180394,21.9900074 32.8070394,22.0740074 32.8010394,22.1580074 C32.7530394,22.8400074 32.7740394,24.1160074 32.8630394,25.9870074 L32.8630394,26.0170074 C32.9180394,27.4870074 32.4630394,29.3300074 31.5000394,31.5480074 L31.4850394,31.5480074 C30.5050394,33.7170074 28.6300394,35.4790074 25.8600394,36.8310074 C25.3320394,37.0920074 24.9700394,37.4980074 24.7760394,38.0550074 C24.5810394,38.6110074 24.6120394,39.1530074 24.8690394,39.6830074 C25.1280394,40.2120074 25.5370394,40.5750074 26.0930394,40.7680074 C26.6460394,40.9620074 27.1880394,40.9320074 27.7200394,40.6740074 C31.5620394,38.8040074 34.1290394,36.3310074 35.4200394,33.2530074 L35.4050394,33.2530074 C36.7070394,30.2790074 37.2850394,27.7950074 37.1400394,25.8000074 L37.1400394,25.7700074 C37.1080394,25.0820074 37.0860394,24.4880074 37.0770394,23.9880074 C53.0160394,20.1760074 62.0340394,18.1770074 64.1290394,17.9910074 L64.1290394,17.9750074 C65.9070394,17.8190074 67.2960394,17.9780074 68.2970394,18.4550074 L68.3140394,18.4550074 C69.1120394,18.8830074 69.6750394,19.5330074 70.0020394,20.4080074 C70.0080394,20.4230074 70.0130394,20.4380074 70.0190394,20.4530074 C70.2950394,21.3190074 70.2480394,22.1660074 69.8790394,22.9940074 C69.8740394,23.0050074 69.8680394,23.0160074 69.8630394,23.0260074 C69.4940394,23.7860074 68.9160394,24.3120074 68.1280394,24.6070074 L68.1440394,24.5900074 C66.8630394,25.0540074 65.5710394,25.4780074 64.2700394,25.8610074 C64.2310394,25.8710074 64.1900394,25.8820074 64.1470394,25.8920074 C63.9440394,25.9630074 63.3800394,26.1330074 62.4580394,26.4040074 C62.4110394,26.4110074 62.3640394,26.4220074 62.3180394,26.4350074 C57.8470394,27.7390074 51.8820394,28.9530074 44.4220394,30.0760074 C43.8360394,30.1620074 43.3660394,30.4400074 43.0130394,30.9120074 C42.6630394,31.3910074 42.5340394,31.9230074 42.6250394,32.5090074 C42.7100394,33.0890074 42.9890394,33.5540074 43.4620394,33.9050074 C43.9370394,34.2520074 44.4640394,34.3820074 45.0420394,34.2920074 C52.7120394,33.1480074 58.8530394,31.9080074 63.4640394,30.5730074 C68.3090394,29.7860074 71.9080394,29.5890074 74.2630394,29.9840074 L74.2950394,29.9840074 C75.9940394,30.2560074 77.1360394,30.9800074 77.7190394,32.1530074 L77.7190394,32.1680074 C78.2280394,33.3430074 78.2120394,34.4330074 77.6720394,35.4390074 L77.6880394,35.4220074 C77.0380394,36.5410074 76.1030394,37.3320074 74.8830394,37.7930074 C73.3230394,38.2870074 63.5720394,38.9590074 45.6310394,39.8080074 C45.6050394,39.8060074 45.5790394,39.8060074 45.5540394,39.8080074 C44.9780394,39.8320074 44.4920394,40.0590074 44.0970394,40.4900074 C43.6980394,40.9220074 43.5060394,41.4280074 43.5240394,42.0090074 C43.5450394,42.5930074 43.7660394,43.0890074 44.1900394,43.4960074 C44.6120394,43.8980074 45.1130394,44.0950074 45.6930394,44.0840074 L45.7710394,44.0840074 C60.1910394,43.8570074 67.7830394,43.7240074 68.5470394,43.6820074 L68.5770394,43.6820074 C69.4950394,43.6170074 70.3010394,43.8740074 70.9940394,44.4560074 L71.0100394,44.4710074 C71.7090394,45.0860074 72.0910394,45.8520074 72.1560394,46.7660074 C72.2190394,47.6790074 71.9450394,48.4790074 71.3350394,49.1670074 C70.7250394,49.8540074 69.9550394,50.2350074 69.0270394,50.3130074 C67.5750394,50.4160074 66.1240394,50.4860074 64.6730394,50.5300074 C63.6450394,50.5490074 62.5850394,50.5590074 61.4970394,50.5600074 C61.3950394,50.5510074 61.2920394,50.5510074 61.1870394,50.5600074 C55.9380394,50.5530074 49.9120394,50.1870074 43.1050394,49.4600074 C42.5210394,49.3980074 42.0000394,49.5530074 41.5400394,49.9250074 C41.0790394,50.2930074 40.8150394,50.7700074 40.7500394,51.3500074 C40.6880394,51.9350074 40.8430394,52.4550074 41.2150394,52.9140074 C41.5830394,53.3750074 42.0590394,53.6400074 42.6410394,53.7050074 C49.3140394,54.4190074 55.2590394,54.7950074 60.4740394,54.8360074 C60.4830394,54.8510074 60.4940394,54.8660074 60.5050394,54.8830074 C60.9580394,55.5320074 61.1130394,56.2770074 60.9700394,57.1130074 L60.9700394,57.1300074 C60.8240394,58.0170074 60.3910394,58.7490074 59.6680394,59.3280074 C58.9910394,59.8720074 58.2420394,60.1160074 57.4220394,60.0580074 C50.6860394,59.4090074 44.1520394,58.0230074 37.8200394,55.9040074 Z"></path>
</svg>
