<svg viewBox="0 0 86 68" xmlns="http://www.w3.org/2000/svg">
  <path d="M67.9197453,59.1951721 C68.1114706,58.0802482 68.0885469,57.0320114 67.8541003,56.0462936 C69.3160052,56.0056562 70.782078,55.9379272 72.2471088,55.8378966 L72.2627386,55.8378966 C74.4311092,55.6545073 76.2285332,54.7615262 77.6550106,53.1579114 C79.1294193,51.5063652 79.7910798,49.585987 79.6410339,47.3936507 C79.5253736,45.6639557 78.9272742,44.1582874 77.8488198,42.872478 C78.66782,42.7599437 79.222156,42.6453253 79.5118278,42.5338329 L79.5441293,42.5182032 C81.8302443,41.6658595 83.579737,40.1914508 84.7905235,38.0949771 L84.8071953,38.0793473 C86.138852,35.8099041 86.2295047,33.3518616 85.0822793,30.70001 L85.0822793,30.7177237 C84.0121607,28.0210667 81.6927023,26.3851503 78.1228619,25.8099747 L78.1551634,25.8099747 C77.6341709,25.7099441 77.0579533,25.6359632 76.4285944,25.5828219 C76.5807242,25.3442074 76.7203501,25.0899631 76.8474723,24.8232149 L76.8641441,24.7909134 C77.7498313,22.8382336 77.8509038,20.8417905 77.1715296,18.801584 C77.1652777,18.7890801 77.1600678,18.7724084 77.1538159,18.7536526 C76.4150486,16.719698 75.1125674,15.2171558 73.2474143,14.2491518 L73.2640861,14.2491518 C71.6375476,13.3249111 69.3618525,12.9966859 66.4349168,13.264476 L66.4349168,13.2478042 C64.3092675,13.4207737 55.5003269,15.3515718 40.0060108,19.0433245 C40.0497742,18.9683015 40.0924956,18.8922366 40.1352169,18.8172137 L40.1352169,18.8338855 C41.2522248,16.9405989 42.1076944,14.8587129 42.7016258,12.5851018 L42.6859961,12.6017736 C43.3935038,10.0645402 43.1444694,7.35746335 41.9430608,4.48262691 C40.546801,1.07012623 37.9324608,-0.394904595 34.0958722,0.0906603885 L34.0802425,0.0906603885 C30.3853639,0.454313132 27.9971344,2.90297774 26.9124281,7.43665421 C26.2299279,10.3271204 25.5515957,12.2422888 24.8774315,13.1842431 L24.8628437,13.2009149 C24.1157405,14.0490906 22.8934922,14.9535336 21.1971407,15.9132017 C21.1867208,15.9173696 21.175259,15.9225796 21.1648391,15.9288315 C18.7380562,17.2521523 16.8489375,19.2652672 15.498525,21.9671342 L15.498525,21.9504624 C15.089025,22.7475809 14.7284982,23.5644971 14.4159027,24.404337 C13.0707001,23.5321956 11.8974251,23.1383253 10.8971195,23.226894 C7.55859978,23.0945619 4.88799238,25.0701653 2.88946527,29.1516204 L2.90509504,29.1349486 C1.49737339,31.9149644 0.582510609,34.9981978 0.160506709,38.3867329 L0.160506709,38.4034046 C-0.250035357,41.8242412 0.127163191,45.2575816 1.29001839,48.7034258 L1.30564816,48.7200975 C2.60812934,52.7817548 5.87996205,54.8980262 11.1211463,55.0647438 C11.3993563,55.0741217 11.6577686,55.0366102 11.8963831,54.9532514 C16.3404489,62.7723064 25.2421262,65.0052801 38.5982892,61.6532146 C45.3274279,63.8434669 52.2649636,65.2803641 59.4098543,65.9628643 L59.4254841,65.9628643 C61.4479769,66.1566735 63.2891643,65.5919176 64.9469623,64.2675548 C66.6089283,62.9306881 67.598814,61.2426725 67.9197453,59.1951721 Z M39.4079115,57.2091488 C38.9848656,57.0705648 38.5597357,57.0611869 38.1325219,57.1768473 C25.0066376,60.6133136 17.0052353,57.7718207 14.1262309,48.6523685 C13.9522194,48.065731 13.5989865,47.6249713 13.0602803,47.3290476 C12.5194901,47.0352079 11.9536923,46.9758147 11.3660128,47.1498262 C10.7783333,47.3227957 10.3365316,47.6770706 10.0416499,48.2157768 C9.74676815,48.756567 9.688417,49.3213228 9.86347047,49.9100443 C9.91869567,50.1101054 9.97808881,50.3091245 10.0416499,50.5081437 C7.74303112,50.1736665 6.23111097,49.0931281 5.50484747,47.2634026 L5.52151923,47.2800743 C4.57643889,44.4875547 4.2638434,41.7044129 4.58477477,38.931691 C4.93696568,36.0787362 5.70178262,33.4789838 6.87714163,31.1366017 L6.89381339,31.1188879 C7.95247009,28.9557272 9.28621081,27.8085018 10.8981615,27.6792956 C11.4712532,27.789746 12.2350282,28.2419675 13.1905284,29.037002 C13.1332192,29.3641853 13.0863299,29.6924105 13.0446505,30.0206358 C12.9685856,30.630197 13.1196734,31.1772391 13.496872,31.666972 C13.8771965,32.151495 14.3721393,32.4317889 14.9817005,32.5078538 C15.5912617,32.5839187 16.1414297,32.4338729 16.6290787,32.0545904 C17.1125597,31.6753079 17.3928537,31.180365 17.4689186,30.5697619 C17.7585904,28.208624 18.4254607,26.0131617 19.4705716,23.9823331 L19.4705716,23.9656613 C20.3948123,22.116138 21.6816637,20.732382 23.3290419,19.8175193 L23.3613434,19.8008475 C25.6828858,18.4910724 27.329222,17.2302707 28.301394,16.0236521 L28.3180657,16.0069803 C29.3600507,14.8316213 30.3343066,12.3173117 31.2408335,8.46717731 C31.7910015,6.16022266 32.9267651,4.84106973 34.6470823,4.51180249 L34.663754,4.51180249 C36.2006818,4.31382535 37.2603805,4.87337126 37.8438921,6.19148221 C38.6212128,8.05038334 38.8046022,9.79987606 38.3919761,11.4389184 L38.3753044,11.4545481 C37.8939073,13.3155332 37.1999454,15.0212626 36.2923765,16.5727782 L36.2923765,16.5894499 C35.1774526,18.4994083 34.4939105,20.1895079 34.2427921,21.6587067 C34.2292463,21.70247 34.2188265,21.7451914 34.2104906,21.7879128 C34.1959028,21.8712716 34.184441,21.9587983 34.178189,22.0463251 C34.1281738,22.7569588 34.1500555,24.0865316 34.2427921,26.0360854 L34.2427921,26.0673449 C34.3001013,27.5990628 33.8259981,29.519441 32.8225666,31.8305636 L32.8069369,31.8305636 C31.7857916,34.090629 29.8320699,35.9266064 26.9457716,37.3353701 C26.3956035,37.6073281 26.018405,38.030374 25.8162599,38.6107596 C25.6130728,39.1901033 25.6453744,39.7548591 25.9131645,40.3071111 C26.1830386,40.8583211 26.6092104,41.2365617 27.1885541,41.4376648 C27.7647717,41.6398098 28.3295276,41.6085503 28.8838636,41.3397182 C32.8871697,39.3912063 35.561945,36.8143776 36.9071476,33.607148 L36.8915178,33.607148 C38.2481822,30.5082847 38.8504495,27.9199942 38.6993617,25.8412342 L38.6993617,25.8099747 C38.6660182,25.093089 38.6430945,24.47415 38.6337166,23.9531575 C55.2419146,19.9811109 64.6385348,17.898183 66.8214932,17.7043738 L66.8214932,17.6877021 C68.6741424,17.5251524 70.1214595,17.690828 71.1644864,18.1878548 L71.1822002,18.1878548 C72.0137042,18.6338244 72.6003417,19.3111146 72.9410708,20.2228514 C72.9473227,20.2384812 72.9525326,20.254111 72.9587845,20.2697407 C73.2463724,21.1720997 73.1973991,22.0546609 72.8129066,22.9174245 C72.8076967,22.9288863 72.8014448,22.9403481 72.7962349,22.950768 C72.4117424,23.7426765 71.8094751,24.2907606 70.988391,24.5981462 L71.0050627,24.5804324 C69.67028,25.0639134 68.3240355,25.5057151 66.9684131,25.9047953 C66.9277757,25.9152151 66.8850543,25.926677 66.8402489,25.9370968 C66.628726,26.0110777 66.0410465,26.1882152 65.0803364,26.4705931 C65.0313631,26.477887 64.9823898,26.4893488 64.9344585,26.5028946 C60.2757438,27.861643 54.0603037,29.1266127 46.287096,30.2967618 C45.6764928,30.3863725 45.1867599,30.6760443 44.8189392,31.1678612 C44.4542445,31.666972 44.3198285,32.221308 44.4146491,32.8319112 C44.5032178,33.4362624 44.7939316,33.9207854 45.2867905,34.2865221 C45.7817333,34.6480909 46.3308594,34.7835489 46.9331267,34.6897703 C54.9251512,33.4977395 61.3239807,32.2056782 66.1285732,30.8146283 C71.1769903,29.9945862 74.9270941,29.7893151 77.3809686,30.2008992 L77.4143121,30.2008992 C79.1846445,30.4843191 80.3745913,31.2387162 80.9820685,32.4609645 L80.9820685,32.4765943 C81.5124389,33.7009266 81.4957671,34.8366902 80.9330952,35.884927 L80.949767,35.8672133 C80.2724768,37.0331944 79.2982209,37.8574045 78.0269993,38.3377596 C76.4015027,38.8525001 66.2411076,39.552714 47.5468558,40.4373592 C47.5197642,40.4352753 47.4926726,40.4352753 47.466623,40.4373592 C46.8664396,40.4623669 46.360035,40.6988974 45.9484509,41.147993 C45.5326989,41.5981305 45.3326378,42.1253748 45.3513935,42.7307681 C45.3732752,43.3392873 45.6035539,43.8561118 46.0453555,44.2801997 C46.4850732,44.6990776 47.0071076,44.9043487 47.6114589,44.8928868 L47.6927337,44.8928868 C62.7181565,44.6563562 70.6289062,44.5177723 71.4249827,44.4740089 L71.4562422,44.4740089 C72.4127844,44.4062799 73.2526243,44.67407 73.9747198,45.2805052 L73.9913916,45.296135 C74.7197391,45.9369557 75.1177773,46.7351162 75.1855063,47.6874904 C75.2511514,48.6388227 74.9656475,49.4724106 74.3300367,50.1892963 C73.6944259,50.9051399 72.8920975,51.3021362 71.9251354,51.383411 C70.4121733,51.4907355 68.9002532,51.5636744 67.388333,51.6095217 C66.3171725,51.6293195 65.2126685,51.6397393 64.0789889,51.6407813 C63.9727064,51.6314034 63.8653819,51.6314034 63.7559735,51.6407813 C58.2865946,51.6334874 52.0075933,51.2521209 44.9148019,50.4945979 C44.3062827,50.4299948 43.7634085,50.5915025 43.2840954,50.9791209 C42.8037404,51.3625713 42.5286563,51.8595981 42.4609273,52.4639494 C42.3963243,53.0735106 42.5578319,53.6153428 42.9454503,54.0936138 C43.3289008,54.5739689 43.8248856,54.8500949 44.4313208,54.9178239 C51.3844863,55.6618012 57.5790868,56.0535875 63.0130383,56.0963089 C63.0224161,56.1119387 63.033878,56.1275684 63.0453398,56.1452822 C63.517359,56.8215304 63.6788666,57.5978092 63.5298628,58.4689086 L63.5298628,58.4866223 C63.377733,59.410863 62.9265535,60.173596 62.1731984,60.7769052 C61.4677746,61.343745 60.6873279,61.5979894 59.8329002,61.5375542 C52.8140897,60.861306 46.0057601,59.4171149 39.4079115,57.2091488 Z"></path>
</svg>
