<svg viewBox="0 0 83 67" xmlns="http://www.w3.org/2000/svg">
  <path d="M53.0025816,63.7086254 C55.0055816,61.9746254 55.9945816,59.8926254 55.9695816,57.4656254 L55.9695816,57.2736254 C58.5045816,56.9266254 60.8355816,55.9896254 62.9655816,54.4606254 L62.9855816,54.4406254 C66.2365816,52.0366254 67.8295816,49.1396254 67.7635816,45.7506254 C67.7605816,44.9396254 67.6715816,44.1486254 67.4935816,43.3796254 C67.7895816,43.1876254 68.1045816,42.9816254 68.4365816,42.7646254 C68.4755816,42.7296254 68.5145816,42.6986254 68.5525816,42.6676254 C70.6985816,41.1666254 71.7725816,38.7646254 71.7705816,35.4596254 C71.8465816,33.6166254 71.1985816,31.7406254 69.8255816,29.8336254 C70.4805816,29.4556254 71.1095816,29.0386254 71.7135816,28.5816254 C72.0265816,28.3616254 72.3865816,28.0786254 72.7925816,27.7336254 C72.9405816,27.6056254 73.0755816,27.4636254 73.1975816,27.3086254 C73.2255816,27.2706254 73.2585816,27.2256254 73.2945816,27.1736254 C76.4825816,24.2566254 78.0435816,21.3576254 77.9765816,18.4846254 C78.1435816,15.5096254 76.6085816,12.6256254 73.3715816,9.83062542 L73.3515816,9.81262542 C68.0535816,5.06862542 61.3285816,4.13062542 53.1755816,6.99962542 C52.9945816,6.80262542 52.8085816,6.60362542 52.6165816,6.40162542 L52.6165816,6.42162542 C48.4705816,2.09662542 43.9095816,-0.0433745807 38.9345816,0.00362541926 C35.4215816,-0.0913745807 31.4255816,1.68062542 26.9485816,5.32262542 L26.9285816,5.34262542 C24.2755816,7.39162542 22.0535816,10.5636254 20.2615816,14.8616254 C19.1805816,14.2846254 18.0955816,14.0216254 17.0045816,14.0716254 C13.0195816,13.9146254 9.83358156,16.2706254 7.44558156,21.1446254 L7.46558156,21.1246254 C5.78658156,24.4696254 4.69458156,28.1506254 4.19058156,32.1666254 L4.19058156,32.1846254 C3.70258156,36.2676254 4.15158156,40.3786254 5.53958156,44.5176254 L5.55958156,44.5376254 C7.00358156,49.0476254 10.4795816,51.5446254 15.9845816,52.0336254 C16.5475816,53.1386254 17.2805816,54.2956254 18.1815816,55.5026254 L18.2005816,55.5226254 C21.3025816,59.9476254 26.5175816,61.5476254 33.8475816,60.3206254 C34.3845816,60.9316254 35.0015816,61.5486254 35.6985816,62.1716254 L35.6985816,62.1916254 C38.7575816,64.9356254 41.9365816,66.2646254 45.2375816,66.1806254 L45.2755816,66.1806254 C48.6545816,66.1146254 51.2175816,65.3046254 52.9645816,63.7516254 C52.9745816,63.7326254 52.9885816,63.7206254 53.0025816,63.7086254 Z M45.9305816,43.0516254 C45.9685816,43.0736254 46.0065816,43.0996254 46.0455816,43.1286254 C46.3035816,43.2816254 46.5605816,43.4376254 46.8165816,43.5906254 C48.7365816,44.7466254 50.7595816,45.5626254 52.8855816,46.0376254 C54.4355816,46.3866254 56.0285816,46.5596254 57.6645816,46.5576254 C59.3285816,46.5566254 60.9215816,46.3316254 62.4435816,45.8836254 C62.3335816,47.5186254 61.4655816,48.9386254 59.8415816,50.1426254 L59.8215816,50.1626254 C58.0025816,51.4616254 55.9605816,52.1106254 53.6935816,52.1086254 C51.0055816,52.1076254 48.4995816,51.3996254 46.1775816,49.9896254 L46.1975816,50.0076254 C43.8365816,48.5386254 42.6225816,46.6446254 42.5555816,44.3226254 C42.5545816,43.3916254 42.8495816,42.6986254 43.4415816,42.2426254 L43.4805816,42.2426254 C43.7395816,42.0766254 44.0285816,41.9466254 44.3475816,41.8566254 C44.8305816,42.2676254 45.3585816,42.6666254 45.9305816,43.0516254 Z M53.3295816,31.6826254 C53.4365816,31.7146254 53.5395816,31.7396254 53.6385816,31.7596254 C53.9205816,31.8106254 54.2035816,31.8616254 54.4865816,31.9126254 L54.3515816,31.8746254 C56.4555816,32.3756254 58.5765816,32.5556254 60.7105816,32.4136254 L60.7295816,32.4136254 C62.0075816,32.3396254 63.2865816,32.1546254 64.5655816,31.8546254 C65.7315816,33.1116254 66.3605816,34.3126254 66.4545816,35.4576254 C66.4525816,36.7136254 66.1255816,37.6696254 65.4715816,38.3296254 L65.4125816,38.3876254 C65.3925816,38.3996254 65.3745816,38.4126254 65.3545816,38.4266254 C64.9975816,38.6566254 64.6635816,38.8826254 64.3525816,39.1016254 L64.3335816,39.1016254 C63.9805816,39.3516254 63.6525816,39.5776254 63.3505816,39.7756254 C63.3195816,39.7916254 63.2875816,39.8106254 63.2545816,39.8336254 C63.1035816,39.8926254 62.9555816,39.9696254 62.8115816,40.0646254 C62.7075816,40.0966254 62.6045816,40.1336254 62.5025816,40.1796254 C61.0045816,40.8886254 59.3925816,41.2426254 57.6655816,41.2396254 C56.4255816,41.2376254 55.2175816,41.1026254 54.0425816,40.8366254 C52.4705816,40.4886254 50.9735816,39.8916254 49.5525816,39.0436254 C49.2965816,38.8896254 49.0395816,38.7346254 48.7815816,38.5806254 C48.0975816,38.1016254 47.5195816,37.5876254 47.0475816,37.0396254 L47.0475816,37.0596254 C46.0855816,35.9146254 45.6045816,34.6116254 45.6025816,33.1466254 C45.6035816,32.1576254 45.9375816,31.4256254 46.6055816,30.9506254 L46.6055816,30.9306254 C47.4655816,30.4526254 48.5845816,30.2156254 49.9585816,30.2186254 C50.9255816,30.7976254 52.0495816,31.2846254 53.3295816,31.6826254 Z M69.8645816,13.8386254 L69.8835816,13.8586254 C71.6465816,15.3766254 72.5715816,16.8926254 72.6585816,18.4046254 C72.5155816,19.9896254 71.4945816,21.6396254 69.5945816,23.3576254 C69.5075816,23.4416254 69.4245816,23.5326254 69.3445816,23.6276254 C69.2765816,23.7106254 69.2115816,23.7876254 69.1525816,23.8596254 C68.9765816,24.0016254 68.8165816,24.1226254 68.6715816,24.2256254 C68.6395816,24.2526254 68.6075816,24.2786254 68.5745816,24.3026254 C67.5715816,25.0736254 66.4605816,25.6906254 65.2405816,26.1536254 C64.8375816,26.2706254 64.4265816,26.3866254 64.0075816,26.4996254 C62.8065816,26.8326254 61.6055816,27.0306254 60.4035816,27.0976254 L60.3845816,27.0976254 C58.7735816,27.2116254 57.1735816,27.0826254 55.5855816,26.7116254 C55.5405816,26.6986254 55.4945816,26.6866254 55.4505816,26.6736254 C55.2185816,26.6306254 54.9865816,26.5866254 54.7565816,26.5386254 C54.5265816,26.4646254 54.3005816,26.3886254 54.0825816,26.3066254 C54.9685816,25.8186254 55.7385816,25.1446254 56.3945816,24.2836254 C56.4055816,24.2636254 56.4175816,24.2446254 56.4345816,24.2266254 C57.2885816,23.0886254 57.8415816,21.7196254 58.0905816,20.1226254 C58.6195816,20.3426254 59.3905816,20.6766254 60.4035816,21.1236254 C61.0815816,21.4246254 61.7615816,21.4436254 62.4465816,21.1826254 C63.1265816,20.9156254 63.6145816,20.4476254 63.9105816,19.7746254 C64.2125816,19.0986254 64.2315816,18.4186254 63.9695816,17.7316254 C63.7015816,17.0526254 63.2335816,16.5646254 62.5625816,16.2686254 C60.2135816,15.2256254 58.7935816,14.6726254 58.3035816,14.6106254 C58.2205816,14.6006254 58.1365816,14.5946254 58.0535816,14.5906254 C57.9535816,14.5816254 57.8575816,14.5756254 57.7645816,14.5706254 C57.7505816,14.5246254 57.7385816,14.4786254 57.7255816,14.4366254 C57.7195816,14.4066254 57.7125816,14.3746254 57.7055816,14.3406254 C57.4215816,13.4226254 57.0165816,12.4976254 56.4915816,11.5646254 C61.8165816,10.0806254 66.2735816,10.8376254 69.8645816,13.8386254 Z M22.4595816,52.3396254 L22.4395816,52.3196254 C20.4255816,49.6016254 19.7325816,47.4186254 20.3575816,45.7676254 C20.7025816,45.1176254 20.7675816,44.4426254 20.5505816,43.7446254 C20.3365816,43.0416254 19.9065816,42.5156254 19.2595816,42.1656254 C18.6115816,41.8206254 17.9365816,41.7566254 17.2365816,41.9736254 C16.5345816,42.1886254 16.0075816,42.6196254 15.6565816,43.2636254 C15.0585816,44.2256254 14.7115816,45.2656254 14.6165816,46.3856254 C12.6335816,45.7966254 11.2845816,44.6036254 10.5695816,42.8006254 L10.5885816,42.8206254 C9.46058156,39.4646254 9.08858156,36.1316254 9.47058156,32.8206254 L9.47058156,32.8006254 C9.89358156,29.4236254 10.8065816,26.3276254 12.2075816,23.5116254 L12.2265816,23.4936254 C13.4905816,20.9106254 15.0825816,19.5416254 17.0055816,19.3886254 C17.4755816,19.4516254 17.9565816,19.6696254 18.4505816,20.0436254 C18.0605816,21.3956254 17.7005816,22.8206254 17.3715816,24.3216254 C17.2175816,25.0366254 17.3395816,25.7056254 17.7375816,26.3256254 C18.1315816,26.9496254 18.6835816,27.3406254 19.3945816,27.5016254 C20.1105816,27.6566254 20.7785816,27.5346254 21.3985816,27.1356254 C22.0205816,26.7406254 22.4125816,26.1906254 22.5735816,25.4776254 C24.2775816,17.6946254 26.8405816,12.3636254 30.2625816,9.48362542 L30.2825816,9.46362542 C33.5565816,6.79762542 36.4415816,5.41562542 38.9345816,5.32062542 C42.4905816,5.37462542 45.7655816,6.96762542 48.7625816,10.1006254 C49.2885816,10.6466254 49.7655816,11.1936254 50.1885816,11.7386254 C50.2015816,11.7566254 50.2135816,11.7766254 50.2265816,11.7956254 C50.2805816,11.8706254 50.3375816,11.9416254 50.4005816,12.0076254 C51.4575816,13.3546254 52.1955816,14.6726254 52.6165816,15.9576254 L52.5965816,15.8616254 C52.7225816,16.3066254 52.8195816,16.7496254 52.8855816,17.1906254 C52.8835816,17.2256254 52.8835816,17.2566254 52.8855816,17.2876254 C52.9075816,17.5286254 52.9215816,17.7786254 52.9245816,18.0386254 C52.9235816,19.2746254 52.6535816,20.2966254 52.1145816,21.1016254 L52.1525816,21.0636254 C51.6885816,21.6736254 51.0335816,21.9626254 50.1875816,21.9306254 C49.8005816,21.9356254 49.4275816,21.8896254 49.0695816,21.7956254 L49.0115816,21.7756254 L48.9915816,21.7756254 C48.1975816,21.5056254 47.4525816,21.0166254 46.7565816,20.3126254 L46.7375816,20.3126254 C45.0255816,18.6176254 43.7795816,17.4026254 42.9985816,16.6686254 C42.8905816,16.4156254 42.7355816,16.1796254 42.5365816,15.9566254 C42.0805816,15.4506254 41.5155816,15.1616254 40.8405816,15.0896254 C40.1625816,15.0146254 39.5465816,15.1736254 38.9905816,15.5716254 C38.4395816,15.9746254 38.0925816,16.5086254 37.9495816,17.1706254 C37.6715816,18.1206254 37.8195816,19.4106254 38.3925816,21.0446254 L38.4125816,21.0836254 C38.6955816,21.8556254 38.8555816,22.4206254 38.8945816,22.7786254 C38.8435816,24.4346254 38.1645816,26.1496254 36.8515816,27.9246254 L36.8315816,27.9426254 C35.5945816,29.5666254 34.3155816,30.5126254 32.9965816,30.7756254 C32.2735816,30.8726254 31.6895816,31.2136254 31.2425816,31.7966254 C30.7915816,32.3806254 30.6105816,33.0356254 30.7035816,33.7626254 C30.8005816,34.4856254 31.1405816,35.0696254 31.7245816,35.5166254 C32.3085816,35.9666254 32.9635816,36.1476254 33.6915816,36.0556254 C36.0355816,35.8356254 38.2505816,34.5066254 40.3395816,32.0676254 C40.3005816,32.4156254 40.2805816,32.7746254 40.2805816,33.1456254 C40.2805816,34.6736254 40.5555816,36.1056254 41.1095816,37.4436254 C40.9195816,37.5516254 40.7335816,37.6686254 40.5495816,37.7906254 C38.3405816,39.1356254 37.2365816,41.3116254 37.2355816,44.3226254 C37.2315816,44.6166254 37.2375816,44.9056254 37.2555816,45.1896254 C35.5645816,45.4186254 34.1255816,46.2786254 32.9395816,47.7726254 L32.9205816,47.7916254 C31.6615816,49.3066254 31.0325816,51.2196254 31.0315816,53.5346254 C31.0225816,54.1126254 31.0805816,54.6906254 31.2045816,55.2686254 C27.2645816,55.5776254 24.3475816,54.6006254 22.4595816,52.3396254 Z M45.1595816,60.8576254 C43.1295816,60.8136254 41.1575816,59.9326254 39.2425816,58.2166254 L39.2425816,58.2366254 C38.3965816,57.4646254 37.7225816,56.7056254 37.2195816,55.9636254 L37.1815816,55.9046254 C37.1485816,55.8556254 37.1165816,55.8106254 37.0845816,55.7696254 C36.6195816,55.0186254 36.3755816,54.2736254 36.3525816,53.5346254 C36.3515816,52.5716254 36.5885816,51.7666254 37.0665816,51.1266254 L37.0855816,51.1066254 C37.4095816,50.6956254 37.8085816,50.4766254 38.2805816,50.4516254 C38.4005816,50.4496254 38.4975816,50.4496254 38.5695816,50.4516254 C38.6125816,50.4686254 38.6575816,50.4876254 38.7045816,50.5086254 C38.8555816,50.5856254 39.0105816,50.6496254 39.1675816,50.7016254 C40.1745816,52.1226254 41.5815816,53.3946254 43.3875816,54.5176254 L43.4075816,54.5356254 C45.6325816,55.8866254 47.9835816,56.7666254 50.4605816,57.1766254 C50.5215816,57.2676254 50.5925816,57.3566254 50.6725816,57.4466254 L50.6535816,57.4666254 C50.6285816,58.3116254 50.2685816,59.0426254 49.5735816,59.6626254 C48.5535816,60.4176254 47.0955816,60.8156254 45.1995816,60.8586254 L45.1595816,60.8586254 L45.1595816,60.8576254 Z"></path>
</svg>
