<svg viewBox="0 0 86 68" xmlns="http://www.w3.org/2000/svg">
  <path d="M41.7246891,65.2465825 C43.4302023,63.7701172 44.2723154,61.9973371 44.2510285,59.9307966 L44.2510285,59.7673125 C46.4095287,59.4718492 48.3943272,58.674013 50.2079784,57.3721009 L50.225008,57.3550714 C52.9931675,55.3081149 54.3495742,52.841379 54.2933766,49.9557153 C54.2908221,49.2651655 54.2150405,48.5916453 54.0634771,47.9368577 C54.315515,47.7733736 54.583731,47.5979688 54.8664222,47.4131978 C54.8996299,47.383396 54.9328376,47.3570002 54.9651938,47.3306043 C56.7924686,46.0525337 57.7069575,44.0072802 57.7052545,41.1931408 C57.769967,39.6238642 57.2182083,38.0264889 56.0491271,36.4027176 C56.6068461,36.0808584 57.1424267,35.7257915 57.6567202,35.3366654 C57.9232333,35.1493399 58.2297659,34.9083713 58.5754665,34.6146109 C58.7014854,34.5056215 58.8164352,34.3847114 58.9203157,34.2527321 C58.9441571,34.2203759 58.9722559,34.1820593 59.0029092,34.1377824 C61.7174255,31.654017 63.0465849,29.1855782 62.9895357,26.7392778 C63.1317328,24.2061266 61.8247119,21.75046 59.0684731,19.3705751 L59.0514435,19.3552485 C54.5403056,15.3158302 48.8141066,14.5171425 41.871995,16.9600369 C41.7178772,16.7922954 41.5595021,16.622851 41.396018,16.4508522 L41.396018,16.4678818 C37.8657844,12.7852334 33.9821868,10.9630674 29.7460768,11.003087 C26.7548296,10.9221964 23.3523179,12.4310179 19.5402446,15.5321059 L19.523215,15.5491355 C17.2642402,17.2938168 15.3722529,19.9947095 13.8464018,23.654368 C12.9259526,23.1630643 12.0020974,22.9391253 11.0731334,22.9816992 C7.67998798,22.848017 4.96717456,24.8541024 2.93384174,29.0042131 L2.95087133,28.9871835 C1.52123741,31.8353821 0.591421894,34.9696778 0.162276274,38.3892191 L0.162276274,38.4045457 C-0.253245676,41.8811361 0.129068577,45.381568 1.31092199,48.9058412 L1.32795158,48.9228708 C2.55748784,52.7630429 5.51723029,54.889187 10.2046244,55.3055604 C10.6840073,56.2464452 11.3081417,57.2316068 12.0753247,58.2593425 L12.0915028,58.2763721 C14.7327919,62.0441684 19.173257,63.4065355 25.414601,62.3617703 C25.8718455,62.8820242 26.3972083,63.407387 26.9906894,63.9378586 L26.9906894,63.9548882 C29.5953649,66.2913477 32.302218,67.4229639 35.1129515,67.3514396 L35.1453077,67.3514396 C38.0224566,67.2952419 40.2047983,66.6055436 41.6923328,65.2831961 C41.7008476,65.267018 41.7127683,65.2568002 41.7246891,65.2465825 Z M35.7030267,47.6575724 C35.7353829,47.676305 35.7677391,47.6984434 35.8009468,47.7231363 C36.0206285,47.8534127 36.2394587,47.9862435 36.4574375,48.1165198 C38.0922779,49.10083 39.8148207,49.7956372 41.625066,50.2000899 C42.944859,50.4972562 44.3012657,50.6445622 45.694286,50.6428592 C47.1111478,50.6420077 48.4675545,50.4504249 49.7635061,50.0689621 C49.6698434,51.4611309 48.9307593,52.6702317 47.5479567,53.6954129 L47.5309271,53.7124425 C45.9820861,54.8185142 44.2433651,55.3711243 42.3130613,55.3694214 C40.0242847,55.3685699 37.8904773,54.7657225 35.9133421,53.5651365 L35.9303717,53.5804632 C33.9200288,52.3296399 32.8863328,50.7169379 32.8292837,48.7398027 C32.8284322,47.9470754 33.0796187,47.3570002 33.5836945,46.9687256 L33.6169022,46.9687256 C33.8374353,46.82738 34.0835129,46.7166877 34.3551348,46.6400545 C34.7663994,46.9900126 35.2159805,47.3297528 35.7030267,47.6575724 Z M42.0031228,37.977103 C42.0942311,38.0043504 42.1819335,38.0256374 42.26623,38.042667 C42.5063472,38.0860924 42.7473158,38.1295179 42.9882845,38.1729433 L42.8733348,38.1405871 C44.6648474,38.5671783 46.4708353,38.7204446 48.2878923,38.5995345 L48.3040704,38.5995345 C49.3922611,38.536525 50.4813033,38.3790013 51.5703454,38.1235575 C52.5631704,39.1938671 53.098751,40.2164939 53.17879,41.1914378 C53.1770871,42.2608959 52.8986533,43.0749102 52.3417858,43.6368867 L52.2915485,43.6862725 C52.2745189,43.6964902 52.2591923,43.7075594 52.2421627,43.7194802 C51.9381845,43.9153204 51.6537904,44.1077548 51.3889803,44.2942288 L51.3728022,44.2942288 C51.07223,44.5070986 50.7929447,44.699533 50.5357979,44.8681259 C50.5094021,44.8817495 50.4821547,44.8979277 50.4540559,44.9175117 C50.3254825,44.967749 50.1994636,45.0333129 50.0768505,45.1142034 C49.9882967,45.1414508 49.9005943,45.1729555 49.8137434,45.2121236 C48.5382273,45.8158225 47.1656425,46.1172462 45.6951375,46.1146917 C44.6393031,46.1129888 43.6107159,45.998039 42.6102276,45.7715455 C41.271702,45.4752307 39.9970373,44.9668975 38.7870851,44.244843 C38.5691064,44.1137151 38.3502762,43.9817358 38.1305945,43.850608 C37.5481826,43.4427494 37.0560275,43.0050889 36.6541292,42.5384782 L36.6541292,42.5555078 C35.835006,41.5805639 35.4254444,40.4710862 35.4237415,39.2236689 C35.4245929,38.3815558 35.7089871,37.7582728 36.2777753,37.3538201 L36.2777753,37.3367905 C37.0100476,36.9297834 37.962853,36.7279828 39.1327857,36.7305372 C39.9561663,37.2235438 40.9132292,37.6382142 42.0031228,37.977103 Z M56.0823348,22.7833045 L56.0985129,22.8003341 C57.5996711,24.0928799 58.3872895,25.3837226 58.4613683,26.6711595 C58.3396067,28.0207544 57.4702462,29.4256954 55.8524354,30.888537 C55.7783566,30.9600613 55.7076839,31.0375459 55.6395655,31.1184364 C55.5816649,31.1891092 55.5263187,31.2546731 55.4760815,31.3159797 C55.3262211,31.4368897 55.1899844,31.5399187 55.0665199,31.6276211 C55.0392725,31.6506111 55.0120252,31.6727495 54.9839264,31.693185 C54.1298925,32.3496757 53.1838989,32.8750384 52.145094,33.2692734 C51.8019478,33.3688965 51.4519898,33.4676681 51.0952199,33.5638853 C50.0725931,33.8474279 49.0499664,34.0160209 48.0264881,34.07307 L48.01031,34.07307 C46.6385767,34.1701386 45.2762097,34.0602978 43.9240604,33.7443989 C43.8857438,33.7333297 43.8465757,33.7231119 43.8091106,33.7120427 C43.6115674,33.6754291 43.4140242,33.637964 43.2181839,33.597093 C43.0223437,33.5340835 42.8299093,33.4693711 42.6442868,33.3995498 C43.3986976,32.9840278 44.0543367,32.4101307 44.6129072,31.6770069 C44.6222735,31.6599773 44.6324912,31.6437992 44.6469664,31.6284726 C45.3741298,30.659489 45.8449979,29.4938137 46.0570163,28.1340011 C46.5074489,28.3213266 47.1639395,28.6057207 48.0264881,28.986332 C48.6037912,29.2426273 49.1827972,29.2588054 49.7660606,29.0365693 C50.3450666,28.8092243 50.7605885,28.4107319 51.0126264,27.8376863 C51.2697732,27.2620862 51.2859513,26.6830802 51.0628637,26.0981139 C50.8346672,25.5199593 50.4361749,25.1044374 49.8648322,24.8523995 C47.8647071,23.9643065 46.6556063,23.4934384 46.2383814,23.4406466 C46.1677086,23.4321318 46.0961843,23.427023 46.0255115,23.423617 C45.9403636,23.4159537 45.8586216,23.4108449 45.779434,23.4065875 C45.7675133,23.3674194 45.7572955,23.3282514 45.7462263,23.2924892 C45.7411174,23.2669448 45.7351571,23.2396975 45.7291967,23.2107472 C45.4873766,22.4290891 45.1425274,21.6414706 44.6955007,20.8470404 C49.2296285,19.5834449 53.0246722,20.2280148 56.0823348,22.7833045 Z M15.7179536,55.5661131 L15.700924,55.5490835 C13.9860445,53.2347625 13.3959692,51.375983 13.9281439,49.9701905 C14.2219043,49.4167289 14.2772504,48.8419803 14.0924794,48.2476476 C13.9102628,47.6490576 13.5441266,47.2011794 12.9932195,46.9031617 C12.4414608,46.6094013 11.8667122,46.5549066 11.2706766,46.7396776 C10.6729381,46.9227457 10.2242084,47.2897333 9.92533917,47.838086 C9.41615449,48.6572092 9.12069113,49.5427478 9.03980059,50.4964047 C7.35131693,49.9948834 6.20267121,48.9790684 5.59386344,47.4438511 L5.61004155,47.4608807 C4.64957274,44.6033158 4.3328224,41.7653349 4.65808754,38.9460866 L4.65808754,38.929057 C5.01826332,36.0536111 5.79566406,33.4174308 6.9885867,31.0196648 L7.00476481,31.0043382 C8.08103478,28.8049669 9.43658999,27.6392916 11.0739849,27.5090152 C11.4741802,27.5626584 11.8837418,27.7482809 12.3043726,28.0667342 C11.9722957,29.2179344 11.6657631,30.4312926 11.3856264,31.7093631 C11.2544985,32.3181709 11.358379,32.8878106 11.6972678,33.4157279 C12.0327507,33.947051 12.5027673,34.2799795 13.1081692,34.4170677 C13.7178284,34.549047 14.2866167,34.4451665 14.8145339,34.1054262 C15.3441541,33.7690918 15.677934,33.3007781 15.8150222,32.6936733 C17.2659431,26.0666091 19.4482848,21.5273724 22.3620474,19.0751117 L22.379077,19.0580821 C25.1668205,16.7880381 27.6233386,15.6112935 29.7460768,15.530403 C32.7739375,15.5763829 35.5625326,16.9327896 38.1144164,19.6004745 C38.5622945,20.0653823 38.9684502,20.5311415 39.328626,20.9951978 C39.3396952,21.0105244 39.349913,21.027554 39.3609822,21.0437321 C39.4069621,21.1075931 39.4554964,21.1680481 39.5091396,21.2242457 C40.4091534,22.3711885 41.0375452,23.4934384 41.396018,24.5875894 L41.3789884,24.5058474 C41.4862748,24.8847557 41.5688683,25.2619611 41.625066,25.6374635 C41.623363,25.6672653 41.623363,25.6936611 41.625066,25.720057 C41.6437985,25.9252635 41.6557192,26.1381334 41.6582737,26.359518 C41.6574222,27.4119466 41.4275227,28.2821585 40.9685753,28.9675995 L41.0009316,28.9352432 C40.6058451,29.4546457 40.0481261,29.7007232 39.3277745,29.6734759 C38.998252,29.6777333 38.6806502,29.6385652 38.3758206,29.5585262 L38.3264347,29.5414966 L38.3094052,29.5414966 C37.6333305,29.3115971 36.9989784,28.8952237 36.4063487,28.2957822 L36.3901706,28.2957822 C34.9324378,26.8525246 33.8714945,25.8179771 33.2064891,25.1929912 C33.1145293,24.977567 32.98255,24.7766178 32.8131056,24.5867379 C32.424831,24.1558893 31.9437451,23.9098118 31.3689965,23.8485053 C30.7916935,23.7846443 30.2671822,23.9200295 29.7937596,24.2589183 C29.3245945,24.6020645 29.0291311,25.0567545 28.9073696,25.6204339 C28.6706583,26.4293393 28.7966772,27.5277478 29.2845749,28.9190651 L29.3016045,28.9522728 C29.5425732,29.6096149 29.6788099,30.0907008 29.7120176,30.3955304 C29.6685922,31.8055803 29.0904376,33.2658675 27.9724452,34.7772434 L27.9554156,34.7925701 C26.9021356,36.1753726 25.8130934,36.9808721 24.6899921,37.2048112 C24.0743725,37.2874047 23.5771085,37.5777592 23.1964972,38.0741717 C22.81248,38.5714357 22.6583622,39.1291547 22.7375498,39.7481802 C22.8201433,40.3637998 23.1096463,40.8610638 23.6069103,41.2416751 C24.1041742,41.6248408 24.6618932,41.7789586 25.2817703,41.7006225 C27.277638,41.513297 29.1636649,40.3816809 30.9424053,38.3049226 C30.9091976,38.6012374 30.8921681,38.9069186 30.8921681,39.2228174 C30.8921681,40.5238779 31.1263249,41.7431965 31.5980445,42.8824759 C31.4362634,42.9744357 31.2778882,43.0740588 31.121216,43.1779393 C29.240298,44.3231791 28.3002647,46.1759982 28.2994133,48.7398027 C28.2960073,48.9901377 28.3011162,49.2362152 28.3164429,49.4780354 C26.8765912,49.6730242 25.6513123,50.4052965 24.6414577,51.6774067 L24.6252796,51.6935848 C23.5532671,52.9835761 23.0176865,54.6124562 23.016835,56.583631 C23.0091717,57.0757861 23.0585575,57.5679412 23.164141,58.0600963 C19.8093121,58.3232034 17.3255467,57.4913081 15.7179536,55.5661131 Z M35.0465361,62.8190147 C33.3180329,62.7815496 31.6389155,62.0313963 30.0083324,60.5702576 L30.0083324,60.5872872 C29.2879809,59.9299451 28.7140837,59.2836722 28.2857896,58.6518745 L28.2534334,58.6016372 C28.2253346,58.5599147 28.1980872,58.5215981 28.1708399,58.4866875 C27.774902,57.8472265 27.567141,57.2128743 27.547557,56.583631 C27.5467055,55.7636563 27.7485061,55.0782154 28.1555132,54.5332686 L28.1716914,54.516239 C28.4475707,54.166281 28.787311,53.979807 29.1892092,53.95852 C29.2913868,53.9568171 29.3739803,53.9568171 29.4352868,53.95852 C29.4719004,53.9729952 29.510217,53.9891733 29.5502365,54.0070543 C29.6788099,54.0726183 29.8107892,54.1271129 29.9444715,54.1713899 C30.8019112,55.3813421 31.9999428,56.4644239 33.5377146,57.4206353 L33.5547442,57.4359619 C35.4492858,58.5863106 37.4511139,59.3356125 39.5602284,59.684719 C39.6121687,59.7622036 39.6726237,59.8379853 39.740742,59.9146185 L39.7245639,59.931648 C39.7032769,60.6511481 39.3967444,61.2735796 38.8049662,61.8014968 C37.9364572,62.4443638 36.6950002,62.7832526 35.0805953,62.8198662 L35.0465361,62.8198662 L35.0465361,62.8190147 Z"></path>
</svg>
