<svg viewBox="0 0 84 67" xmlns="http://www.w3.org/2000/svg">
  <path d="M1.33917386,42.8869551 C2.66117386,47.0149551 5.98517386,49.1639551 11.3141739,49.3329551 C11.4821739,49.3389551 11.6461739,49.3279551 11.8041739,49.2999551 C12.2611739,49.9929551 12.8021739,50.6599551 13.4291739,51.3029551 C15.7691739,53.7239551 18.5191739,54.9269551 21.6811739,54.9109551 C22.0011739,54.9179551 22.5111739,54.8629551 23.2061739,54.7479551 C23.5581739,54.6909551 23.7821739,54.6579551 23.8801739,54.6489551 L24.0601739,54.6489551 C24.6241739,55.7009551 25.4171739,56.7549551 26.4391739,57.8149551 L26.4551739,57.8309551 C28.9141739,60.3939551 31.5881739,61.6509551 34.4781739,61.6039551 C37.0011739,61.5929551 39.2101739,60.8889551 41.1051739,59.4879551 C43.2851739,57.8849551 44.3351739,56.0209551 44.2561739,53.8939551 L44.2561739,53.7789551 C47.0161739,53.6869551 49.5311739,52.9489551 51.8031739,51.5649551 L51.8201739,51.5469551 C54.8571739,49.6419551 56.3291739,47.3179551 56.2331739,44.5749551 C56.2511739,43.6279551 56.0981739,42.7159551 55.7731739,41.8339551 C58.4711739,42.3399551 61.2271739,42.7759551 64.0421739,43.1469551 C69.8581739,43.9099551 73.8071739,44.1279551 75.8871739,43.8029551 C75.8981739,43.7969551 75.9091739,43.7909551 75.9201739,43.7859551 C78.6181739,43.3679551 80.6911739,41.8639551 82.1381739,39.2749551 L82.1211739,39.2909551 C83.6471739,36.7409551 83.6151739,33.8599551 82.0221739,30.6449551 C80.7351739,27.4819551 76.5681739,25.6389551 69.5211739,25.1169551 C69.4391739,25.1099551 69.3561739,25.1049551 69.2751739,25.0999551 C74.1991739,23.5809551 77.1961739,21.6709551 78.2651739,19.3749551 L78.2821739,19.3579551 C80.0021739,16.1589551 80.2361739,13.5829551 78.9881739,11.6319551 C77.9711739,9.74295507 76.4461739,8.44295507 74.4111739,7.72695507 L74.4431739,7.72695507 C72.7101739,7.08095507 70.7371739,6.79695507 68.5201739,6.87395507 L68.4871739,6.87395507 C66.4741739,6.89195507 62.4491739,7.93695507 56.4141739,10.0059551 C51.6881739,11.6239551 47.7671739,13.1989551 44.6501739,14.7319551 C43.8731739,13.3369551 42.7891739,11.9169551 41.4021739,10.4669551 C37.8731739,6.78195507 33.9901739,4.96295507 29.7541739,5.00295507 C26.7581739,4.92395507 23.3521739,6.42895507 19.5331739,9.51495507 C17.2711739,11.2709551 15.3811739,13.9769551 13.8551739,17.6349551 C12.9351739,17.1559551 12.0111739,16.9369551 11.0841739,16.9789551 C7.69717386,16.8489551 4.97317386,18.8549551 2.91417386,22.9999551 C1.51417386,25.8429551 0.600173861,28.9719551 0.174173861,32.3849551 C-0.263826139,35.8739551 0.124173861,39.3739551 1.33917386,42.8869551 Z M34.5271739,51.5969551 L34.5451739,51.5969551 C36.0781739,52.3999551 37.6861739,52.9839551 39.3671739,53.3539551 C39.4591739,53.5419551 39.5781739,53.7239551 39.7281739,53.8949551 C39.6501739,54.6099551 39.2121739,55.2599551 38.4151739,55.8479551 C37.2901739,56.6769551 35.9791739,57.0859551 34.4771739,57.0779551 C32.7801739,57.0309551 31.1941739,56.2379551 29.7191739,54.6979551 L29.7041739,54.6829551 C28.3411739,53.2699551 27.6241739,51.8919551 27.5541739,50.5469551 C27.5541739,49.7409551 27.7551739,49.0579551 28.1611739,48.4959551 L28.1771739,48.4799551 C28.4541739,48.1459551 28.7921739,47.9719551 29.1951739,47.9559551 C29.3831739,47.9549551 29.5081739,47.9549551 29.5721739,47.9559551 C29.5921739,47.9599551 29.6071739,47.9659551 29.6231739,47.9729551 L29.5571739,47.9729551 C29.8131739,48.0989551 30.0711739,48.1759551 30.3281739,48.2019551 C31.2751739,49.4859551 32.6751739,50.6169551 34.5271739,51.5969551 Z M6.98217386,25.0049551 C8.07417386,22.8009551 9.44117386,21.6359551 11.0841739,21.5089551 C11.4841739,21.5629551 11.8951739,21.7489551 12.3141739,22.0669551 C11.9821739,23.2169551 11.6751739,24.4319551 11.3941739,25.7099551 C11.2631739,26.3179551 11.3671739,26.8869551 11.7071739,27.4159551 C12.0431739,27.9459551 12.5141739,28.2799551 13.1171739,28.4169551 C13.7261739,28.5489551 14.2971739,28.4449551 14.8241739,28.1059551 C15.3531739,27.7699551 15.6871739,27.2989551 15.8261739,26.6939551 C17.2791739,20.0589551 19.4671739,15.5039551 22.3871739,13.0289551 C25.1761739,10.7769551 27.6311739,9.61195507 29.7541739,9.53295507 C32.7791739,9.57895507 35.5681739,10.9349551 38.1211739,13.6019551 L38.1211739,13.5849551 C39.7401739,15.2779551 40.8281739,16.9139551 41.3851739,18.4899551 C41.3911739,18.5069551 41.3971739,18.5229551 41.4031739,18.5389551 C41.5731739,19.1469551 41.6631739,19.7539551 41.6651739,20.3599551 C41.6651739,21.4019551 41.4401739,22.2539551 40.9931739,22.9199551 C40.6001739,23.4279551 40.0461739,23.6689551 39.3351739,23.6409551 C38.2631739,23.6139551 37.2841739,23.1649551 36.3991739,22.2969551 C34.9581739,20.8689551 33.9031739,19.8409551 33.2331739,19.2119551 C33.1431739,18.9799551 33.0041739,18.7599551 32.8231739,18.5549551 C32.4341739,18.1239551 31.9521739,17.8789551 31.3801739,17.8169551 C30.8021739,17.7529551 30.2761739,17.8899551 29.8041739,18.2269551 C29.3351739,18.5709551 29.0401739,19.0249551 28.9191739,19.5889551 C28.6791739,20.3879551 28.8001739,21.4929551 29.2781739,22.9019551 C29.2921739,22.9169551 29.3011739,22.9339551 29.3111739,22.9519551 C29.5531739,23.6099551 29.6901739,24.0909551 29.7211739,24.3949551 C29.6801739,25.8049551 29.0901739,27.2649551 27.9501739,28.7759551 C26.9011739,30.1579551 25.8071739,30.9659551 24.6691739,31.2039551 C24.0581739,31.2939551 23.5641739,31.5889551 23.1921739,32.0899551 C22.8111739,32.5949551 22.6651739,33.1589551 22.7491739,33.7799551 C22.8391739,34.3909551 23.1341739,34.8839551 23.6361739,35.2569551 C24.1421739,35.6359551 24.7041739,35.7839551 25.3251739,35.6989551 C27.5551739,35.4559551 29.6341739,34.0549551 31.5591739,31.4989551 C32.8991739,29.7279551 33.7411739,27.9879551 34.0841739,26.2819551 C35.6801739,27.5629551 37.4301739,28.1919551 39.3341739,28.1689551 C41.5901739,28.1469551 43.3511739,27.3049551 44.6171739,25.6429551 L44.6351739,25.6099551 C45.6731739,24.2639551 46.1941739,22.5129551 46.1941739,20.3599551 C46.1951739,19.9349551 46.1731739,19.5079551 46.1291739,19.0809551 C49.1731739,17.5389551 53.0941739,15.9479551 57.8921739,14.3069551 C63.2851739,12.4519551 66.8611739,11.4839551 68.6211739,11.4019551 L68.6531739,11.4019551 C70.2311739,11.3499551 71.6361739,11.5469551 72.8701739,11.9929551 L72.9031739,11.9929551 C73.8411739,12.3269551 74.5481739,12.9299551 75.0181739,13.7979551 C75.3051739,14.6399551 75.0581739,15.7819551 74.2811739,17.2269551 L74.2981739,17.2119551 C73.1291739,18.9689551 69.8591739,20.4669551 64.4871739,21.7059551 L64.5041739,21.6899551 C58.1621739,23.1269551 52.1851739,24.7169551 46.5711739,26.4639551 C46.0121739,26.6399551 45.5861739,26.9849551 45.2921739,27.4969551 C44.9921739,28.0089551 44.9051739,28.5509551 45.0291739,29.1209551 C45.1631739,29.6929551 45.4741739,30.1459551 45.9661739,30.4839551 C46.4471739,30.8249551 46.9781739,30.9559551 47.5571739,30.8769551 C56.2251739,29.6569551 63.4391739,29.2479551 69.1961739,29.6469551 C73.9721739,29.9999551 76.8921739,31.0009551 77.9581739,32.6489551 C78.7711739,34.2929551 78.8491739,35.7609551 78.1871739,37.0629551 L78.1701739,37.0789551 C77.4741739,38.3409551 76.4831739,39.0899551 75.2011739,39.3269551 L75.2331739,39.3089551 C73.3771739,39.5529551 69.8431739,39.3339551 64.6351739,38.6539551 C59.2571739,37.9469551 54.0951739,36.9969551 49.1491739,35.7999551 C48.6891739,35.6489551 48.2081739,35.5339551 47.7041739,35.4549551 C47.6631739,35.4479551 47.6261739,35.4429551 47.5911739,35.4379551 C47.3891739,35.4169551 47.1751739,35.3939551 46.9501739,35.3729551 C46.3301739,35.3079551 45.7761739,35.4719551 45.2931739,35.8649551 C44.8101739,36.2609551 44.5351739,36.7709551 44.4741739,37.3909551 C44.4091739,38.0099551 44.5731739,38.5629551 44.9651739,39.0459551 C45.3631739,39.5309551 45.8721739,39.8039551 46.4911739,39.8669551 C46.6621739,39.8849551 46.8261739,39.9019551 46.9831739,39.9169551 C47.0211739,39.9239551 47.0591739,39.9289551 47.0981739,39.9339551 C47.2801739,39.9689551 47.4601739,40.0119551 47.6391739,40.0649551 C47.6891739,40.0869551 47.7431739,40.1089551 47.8031739,40.1299551 C48.6131739,40.4109551 49.3831739,40.8769551 50.1161739,41.5249551 L50.1331739,41.5419551 C51.1381739,42.4659551 51.6621739,43.4779551 51.7081739,44.5769551 C51.6131739,45.7699551 50.8541739,46.8139551 49.4271739,47.7109551 L49.4451739,47.6939551 C47.7201739,48.7489551 45.7961739,49.2729551 43.6701739,49.2689551 C41.1391739,49.2739551 38.7971739,48.7159551 36.6491739,47.5949551 L36.6651739,47.5949551 C34.5991739,46.5019551 33.5111739,45.1229551 33.4011739,43.4609551 C33.3831739,42.8349551 33.6371739,42.3809551 34.1551739,42.0979551 L34.1391739,42.1159551 C34.8991739,41.7439551 35.8891739,41.5579551 37.1081739,41.5579551 C37.5301739,41.6089551 38.4171739,41.8929551 39.7661739,42.4109551 C39.7821739,42.4169551 39.7971739,42.4239551 39.8151739,42.4269551 C41.1261739,42.9659551 41.9191739,43.3209551 42.1941739,43.4929551 C42.6691739,43.9059551 43.2151739,44.0919551 43.8351739,44.0509551 C44.4551739,44.0039551 44.9691739,43.7409551 45.3771739,43.2649551 C45.7911739,42.7909551 45.9761739,42.2439551 45.9361739,41.6239551 C45.8861739,41.0049551 45.6231739,40.4909551 45.1481739,40.0819551 C44.7721739,39.6879551 43.5461739,39.0649551 41.4721739,38.2119551 C41.4541739,38.2069551 41.4391739,38.2019551 41.4231739,38.1949551 C39.2551739,37.3639551 37.8181739,36.9769551 37.1091739,37.0299551 C35.0041739,37.0279551 33.3021739,37.3889551 32.0071739,38.1129551 L31.9891739,38.1299551 C29.9341739,39.2419551 28.8971739,41.0089551 28.8721739,43.4279551 C27.1981739,43.5009551 25.7921739,44.2409551 24.6571739,45.6429551 L24.6391739,45.6609551 C23.6331739,46.8989551 23.0981739,48.4139551 23.0321739,50.2039551 C22.8701739,50.2249551 22.6841739,50.2529551 22.4731739,50.2859551 L22.4571739,50.2859551 C22.1031739,50.3459551 21.8461739,50.3789551 21.6861739,50.3849551 C19.7741739,50.3699551 18.1061739,49.6259551 16.6821739,48.1549551 C15.3071739,46.7469551 14.5691739,45.1499551 14.4691739,43.3649551 C14.4381739,42.7389551 14.1921739,42.2159551 13.7291739,41.7899551 C13.2681739,41.3659551 12.7251739,41.1699551 12.1061739,41.1989551 C11.4811739,41.2279551 10.9561739,41.4739551 10.5321739,41.9359551 C10.1081739,42.3979551 9.91117386,42.9389551 9.94017386,43.5599551 C9.95617386,43.9389551 9.98917386,44.3109551 10.0381739,44.6769551 C7.80617386,44.3129551 6.32917386,43.2239551 5.61017386,41.4119551 C4.63517386,38.5789551 4.32517386,35.7589551 4.67217386,32.9469551 C5.03117386,30.0579551 5.80217386,27.4109551 6.98217386,25.0049551 Z"></path>
</svg>
